<mxfile host="65bd71144e">
    <diagram id="BqqDYr7IQJTxEZC6qyF9" name="Page-1">
        <mxGraphModel dx="1097" dy="467" grid="1" gridSize="10" guides="1" tooltips="1" connect="1" arrows="1" fold="1" page="1" pageScale="1" pageWidth="1100" pageHeight="850" math="0" shadow="0">
            <root>
                <mxCell id="0"/>
                <mxCell id="1" parent="0"/>
                <mxCell id="2" value="" style="rounded=1;whiteSpace=wrap;html=1;strokeWidth=3;strokeColor=#FF3333;" vertex="1" parent="1">
                    <mxGeometry x="250" y="565" width="720" height="60" as="geometry"/>
                </mxCell>
                <mxCell id="3" value="Partition 0" style="rounded=1;whiteSpace=wrap;html=1;" vertex="1" parent="1">
                    <mxGeometry x="250" y="565" width="120" height="60" as="geometry"/>
                </mxCell>
                <mxCell id="4" value="&lt;span&gt;Partition 1&lt;/span&gt;" style="rounded=1;whiteSpace=wrap;html=1;" vertex="1" parent="1">
                    <mxGeometry x="370" y="565" width="120" height="60" as="geometry"/>
                </mxCell>
                <mxCell id="5" value="&lt;span&gt;Partition 2&lt;/span&gt;" style="rounded=1;whiteSpace=wrap;html=1;" vertex="1" parent="1">
                    <mxGeometry x="490" y="565" width="120" height="60" as="geometry"/>
                </mxCell>
                <mxCell id="6" value="&lt;span&gt;Partition 3&lt;/span&gt;" style="rounded=1;whiteSpace=wrap;html=1;" vertex="1" parent="1">
                    <mxGeometry x="610" y="565" width="120" height="60" as="geometry"/>
                </mxCell>
                <mxCell id="7" value="&lt;span&gt;Partition 4&lt;/span&gt;" style="rounded=1;whiteSpace=wrap;html=1;" vertex="1" parent="1">
                    <mxGeometry x="730" y="565" width="120" height="60" as="geometry"/>
                </mxCell>
                <mxCell id="8" value="&lt;span&gt;Partition 5&lt;/span&gt;" style="rounded=1;whiteSpace=wrap;html=1;" vertex="1" parent="1">
                    <mxGeometry x="850" y="565" width="120" height="60" as="geometry"/>
                </mxCell>
                <mxCell id="9" value="" style="endArrow=none;html=1;strokeWidth=3;strokeColor=#FF3333;entryX=1;entryY=0.5;entryDx=0;entryDy=0;" edge="1" parent="1" target="10">
                    <mxGeometry width="50" height="50" relative="1" as="geometry">
                        <mxPoint x="240" y="595" as="sourcePoint"/>
                        <mxPoint x="200" y="595" as="targetPoint"/>
                    </mxGeometry>
                </mxCell>
                <mxCell id="10" value="&lt;font color=&quot;#ff3333&quot;&gt;Topic&lt;/font&gt;" style="text;html=1;strokeColor=none;fillColor=none;align=center;verticalAlign=middle;whiteSpace=wrap;rounded=0;" vertex="1" parent="1">
                    <mxGeometry x="130" y="580" width="60" height="30" as="geometry"/>
                </mxCell>
                <mxCell id="12" value="Producer" style="shape=umlActor;verticalLabelPosition=bottom;verticalAlign=top;html=1;outlineConnect=0;" vertex="1" parent="1">
                    <mxGeometry x="595" y="225" width="30" height="60" as="geometry"/>
                </mxCell>
                <mxCell id="15" value="kafka client" style="shape=ext;double=1;rounded=1;whiteSpace=wrap;html=1;" vertex="1" parent="1">
                    <mxGeometry x="560" y="405" width="100" height="40" as="geometry"/>
                </mxCell>
                <mxCell id="16" value="Partitioner" style="rounded=1;whiteSpace=wrap;html=1;" vertex="1" parent="1">
                    <mxGeometry x="565" y="445" width="90" height="30" as="geometry"/>
                </mxCell>
                <mxCell id="20" value="" style="edgeStyle=none;html=1;" edge="1" parent="1" source="17" target="19">
                    <mxGeometry relative="1" as="geometry"/>
                </mxCell>
                <mxCell id="17" value="" style="shape=curlyBracket;whiteSpace=wrap;html=1;rounded=1;" vertex="1" parent="1">
                    <mxGeometry x="470" y="343" width="20" height="30" as="geometry"/>
                </mxCell>
                <mxCell id="18" value="" style="shape=curlyBracket;whiteSpace=wrap;html=1;rounded=1;flipH=1;" vertex="1" parent="1">
                    <mxGeometry x="550" y="343" width="20" height="31" as="geometry"/>
                </mxCell>
                <mxCell id="19" value="key, value" style="text;html=1;strokeColor=none;fillColor=none;align=center;verticalAlign=middle;whiteSpace=wrap;rounded=0;" vertex="1" parent="1">
                    <mxGeometry x="490" y="344" width="60" height="30" as="geometry"/>
                </mxCell>
                <mxCell id="21" value="message =&amp;nbsp;" style="text;html=1;strokeColor=none;fillColor=none;align=center;verticalAlign=middle;whiteSpace=wrap;rounded=0;" vertex="1" parent="1">
                    <mxGeometry x="390" y="343" width="70" height="30" as="geometry"/>
                </mxCell>
                <mxCell id="22" value="" style="endArrow=classic;html=1;entryX=0.5;entryY=0;entryDx=0;entryDy=0;" edge="1" parent="1" target="14">
                    <mxGeometry width="50" height="50" relative="1" as="geometry">
                        <mxPoint x="610" y="315" as="sourcePoint"/>
                        <mxPoint x="710" y="345" as="targetPoint"/>
                        <Array as="points"/>
                    </mxGeometry>
                </mxCell>
                <mxCell id="14" value="" style="shape=image;verticalLabelPosition=bottom;labelBackgroundColor=#ffffff;verticalAlign=top;aspect=fixed;imageAspect=0;image=data:image/webp,UklGRppKAABXRUJQVlA4TI1KAAAvf8AfEE0wbNs2EmzHMO7c7j9w71khov8TgI/zeAhAAp0QANtJgKNN7jzPiE3x2k3yCufoEvMydqTSJL2ZGUviQ8JIoxnSJRlKAY7wCW2LYUrSxVmgSyKdBLb3lqTFJNedYK9KwjTJ3oAe8XsBO7Jt09a4NvIP7H1p1OH1XbXq2Y4BmmvbypqdL/59yMUdDs4vBuAMgPkPg3r7yUsDSZEkR5KRJEXSjFitTvv/56miKJKm/xMAfuUdOAkG/PdRNhqv44fUeNRg5y98tC+py+Nw3KpulREmw8TEww++3ZLZjyTCr4zdmlvLW7tgB2bso+ZCAIhYtmX4YsjasCb8Y6PctI9dzaN5V1DTJQCxkEAhc31Ytl4XcVpjV1E7u7c3NKgBwFhwhhGXOdnSxswJnd3zQowYKYAJBISQWXhTWOsKupYWKFAAVpqhRiynsNz5+DKvilqLfksfDFavegBKM8ydCGnzddI6sCta19Ki6ObGau7eEHAYPjRd0vcnqblh7fixXHLKfj99FN0qVKEHQnChX8YkfF++pt9Lt8Q1fQ0huXH4Rwgwfdr0S0jLtty6li2EEAAA8KgH7Fs/ZJkT0qKA2Hh+AaFLV1ERQlR4P1b/gE/gd2IABALgbwaDtm0EzeHP+rf/hxAREzD/Wl9QYUM7M4N2Wyy03XwpDlL1RmSR6tFxMjN0Mo8smNU5P1PS9s9tpHxVKslymg4zbnLO9BLYJbPmYWkuwgEQx8hp2d5xAUSOsyPnyaGzoyyp6k+wJbvtfh6WnrNtWxzBtq37+/8IhVTMjC10Ig2ortyoqjGGAxpkjbrjGt0hBwYzM1OilFLE/390rW1PI0nvL5mKZqa5Z5mZmdfRUu6OlncjiPYGRpXOJUy0kLXDZWZmGGaGqmquNksUaNs29WZr3/sltW234W/btm3btm3btm3bRm27+XLPZuC2kaIs3Owe0+LMBzxp26ZIkmxr7wciCgbh4ZERkVm4mJmZeXVXrimsaVBvtXgEjD1mZmZeK6mCwd0NVFVEvu+7VrpFYQ4Ak2zbqiRJ2ufc976qmpkXMzMzdasmwaOJyRRXi5nbzMwQkexkpqr/v3s83bZt2ra2baXW1vuYcy5tn3Mu275C122GbCNmB62o7z9hxs2gHbps7Wtfi3Ogt+aLtm3Ttm1ri6W0Psaybdu2bdtrvdq2bds232zbtrcx1uitFgaSJDVZcl6QrH4Ad23bjSRJuo8AMDePyMxq9jtqcCL+KDAaNCdTnRHubgY8tla5D1fAjyRJlmTbtiWiHhFZVWN9oN2Q/+4/shuw4Q1uaEPrt0dVZoab+q5t27bdxrZyaX3MBUDv51/4GHaFBfEbLoQZ7zcpCVizt3DgNpIiZeFuObUw8AUgwP9CJ4GASQSjiCEiBj5dCBJSsYfuFlqH3ZqifXg1+ComBWCg/9Z1LeYOAOW0IFDs68zhLZ6/equUPGRBBuV7v3c3l6L3XauLFta0JgEDYBL6Bj4NOV2k7/UNAgAARN6sOzgfGH4h6vbJXw/MOL4b1efqktWJlnAcF5amU9qiIaG6ThXdK0HrBulWGZl2lH5dMEi/9U2w6OzUHmvWW37zSvdZ8Axga7M3r3wOUFeqf99tR9Kl9/DzDr/dHVrh+DFbvlplvWBZzsPMMbMlOK5jlEwSQgW6gBOQcQQBLuAoHfXiMabRtcHflNw69Kg9BeE4Qz9bVx48PXMeaGEPcGmlJaTp35xLb/fb9X6+cwf516F9c01Tsy8P6p0G2AauKtJmQ3eHGTx5VRWBbIIf4BHnxWc8FwoLTDokYeXTNqGVdLQ2QWUI7U1EOE5pbdI5Gea+91cXnQcABQYkCTvSqkq/z7MOMAT4Ov5p4ue8cd7Hbz64+e76ob0HmIs/MznyWVNtPdIq4xiknFG4JQJQIBMZxcz7BEphJFOpKDscoHJXBGlEn0Mk7yJ0TNdpYjv22Tlzyrazul+Sz/0SwGfvVN/4RTpAD7D/4THD8vipw2retyXybO757U1cfOpK2dyKrqpjRHPPMDQmXVzGAsk8YpbcQBACUnKVOSUQisBgknaSsuJSKxGd+C6topXcuCVitz35D3F4i1wvdKfTK8944XtA/44rU5i0I82AHuCb+Oop/Hq9ZXvvI4f75YKXfbTvS+W46W3fhWckMjPgSixrJEdSYxAKRhEeVgNp7IYsNYwZmiSXEHAwWGDpethnQz3BsUBDchpYUyBzny+7bpgnnDB695+9fBrgjDvnf+tWDBiDAniVHx95ePzn6n7fzr95XC5+792Vpy/Peq0WNWvQnaB1QYRjblAjK8xKEoEkhF5IgWHcUgrRAoQDAZAAlMAEtohkJ6yNJjOsjqPkjVSg7ny49DJaxqVqgyP+4f23xwsD/inQShH7OgOedn9D7/jvoxdvrxdFf3ghCvYHw+lGxn6T3htIXIbsCDjohtg4UoSeQEFutLJUQsjcCACJqiiFLUAshQW2BEJIIIRoNo1h2HZIQIvOR1J1tWdaoPM8PIeB1Ytu/qGH1+wlTFqhz132aW4bGOC90hrf6xdWa4zn6y+vUnqt435dbBL3M8v9iHpDksxec9O0ElYWoIEAhggiaR1igAJDkoQlEQSiVcJgAS0QCAkjIoRwxIU8QzgUZuM8Ncy9ZT/Km9Gl92dRN28veguwtBCtDECggALo/2h3XXozGHf0sM5oyaqi7Mox53JtIFHsEOG1QoYiy7amRBQ94JbR3cLAAoBgkLQWSBISwBGxRMSFYgiiFiMpMCwJTXCZz260sUQCrY5sMsVzUsJAl/6v+vD6zQHij5oVyRIiwE8vJZ0eP84drfLM2bYvre31EgTZ006u2e7+DF3PtIgaBWu9kN6QrJNdkbKMARoic5AiIYSBFgYhMUlEVAbABgQBKjHAEsbEKIBizdJvoAJkWQPoSA1LiD2uUXy5ijxO/7N7aTUBA0SahWgFfrfzLsqgOrz7wu3l/fvOWd+vZpfbzmWl4myZls3GRzBEJYOtsCJWLnFk9XRmF7qbYNk5DS4JtARrAVFGwYcHocZRdMkKhdJSyOayZln7XCRw0IRAKLZgZCRGTCwN16cTHB/e88Z7eHKmfPbzzwB+A/h16F6F9jEudwcZFMBT/fBe8pl/u23//gaNqSdS4PRs4U5tSTskjqYMtELtJCka9CW9C6yeJGqoSM2ivKOSBBTAZpwutSYUBiCLWCDsQBGz9C1MkEAcoopg7CYQqFSKHy0ip5W9Rq9z9dWTT/vLyXl359uuA/QAv8/fD9peLMDLlEHc8EKf4X/+2GSiuCllnbLds1roWJCAvdkXrI1lGfEIethoh2tCQReRI770o970HGraYGzCRlU2gJYSEkpKS6estCgoXCBzIJhaSs+OzEqJWERmCqC0wCjqFM5oVIMuajypW21N0b3bdcVlIy/5APAPwMbzbQHDaUkZO9L8+M+CDFqCt647cu1y7hx3Pty/Nxf4mMpUgcCMjBQN1YOuUAMuCZKvO9yr0Ka4UIROcfx4PNbugmRNuCB3MrgDEuIkVEQrFB9fdH0oC97JEEwygwT6SBUKA3rINHpvSKDacG+YFbNyEmUTPlGwTUUL9VqxdqydOu5/Ils9kT+rrwJTAIB3LKe2Y2nXfe4cXteHqACd+NmAAfvL35tmN8ffmpyWSUKKW/KkRUxBCsLSAFdK2ewVZG8qg2nVjxOTjYGAGuEpD7fjdSlacWmGxUTEDCQLmzpEqcbAYQ76CZexXEI4Vm2zAyjsHdEeKWSJW1BIxoKRpAXAovbQ6GoS3kEf+6Xn3Gxn8e7z0Ju23XLLEzcdh2NtMA7QAgAATmwDQYIBfQMAEadt6Hv4xe/uyqC69sH0hvpYb+HS219dzvXupw0/VSaEGcE9JdBWIUm2LKCpELOmApAMBiY0wzC+x+6PC0+OyCGjBIIiZrBWSqIOq2ZoFbzRT8kLfkxXstESV2nLMBNTJOIezIEGqKXtsLZuKwRwRSyhU+gmPBO4KwcOV+NBu/04tWCYqLBufmao2nrNJacYL4LfpegBaxmOvXHef6AgyT7NJ1IQAIOYvQKYmj9v3/1265g1Xzh7JLmJFRGoUcBsek/eiAgLVgYAhsEJKRJBilgUkxZFlIKziSdYMphAChCLQGxISXKS1IUEkyN5pKKfjMkupqKbuAEkG0WiQaKgYQUd0hDbhRr+EMQS2biKL2vXxoTN0yQcu6xtIK05SoApGpMWlRaPx/D+h3Lh0ztvBgaciN+bX17FW85clPZh5zwq3DmXaWFLUi65rXca/piPQffw4dBlXs83HDWvxfW6xkukiodNEAInWVaGiOA2AywkQAZkzaC2OtJsqRYSqHEXXLKFNGqNkjyTBIXDYlqsWwSTT22t9y1zIyhWl6mEtknSZDaoyypd51CBSapNj6INSERC1XksxoAapGW5hgBWIQ+4+zkdMnSQrskUVikOwmrSCVkOHHrl9rO4fvz7ftBWiAR54f8ceP/4zI4ontD1mVHjUijUTvJs9fn/7i767Di1RtK15npyjMKqARERmHUxQDEKSBuxNZeg9DYITmEryhVKmd6E1Pr5RCs60aZyzjzlJsPQaqkKjLFMbGaNFUcN3IfTjCe/hzLtPM1n3N+ZPa8HTlFJqpDoa0Ixz+0+fFbHrB5+HyWeStvMiJUJ6haxMpOUvishdThrxESOqjCYBPA/QAHaR4iWrwVas76ySXU+XntR21hbd4Oq4C24Ler9w3HfU543XrfaGT1z7bgKekhuRGYUlhAD2ThSekBADgECqO4EGZsuN1sHotmixOHJ17TOsrJe6vjkpmwSUyR0KpM5kifaUg/uEM9iOJvu8MQa9+ncSmQdkijWrCM9lCE3C53h6tpU7+EIdo1RQzjU3qgBNTzRLYneWqERKZ/v/78ERIA/yUVFf9z6nWtQbhp4L13kTutUXp55vpSXbyi+rxFe4mwO3dhbcutAye5chQlRoiXzsULQJLlCkxHFaUW4wnQnlCtpc0sk2EDteeQ9/ZTi4jVkKsuoNQfFLK9vjZc76Oui6NsyeD8q3Jt3eT0tHyk/p4PNB6HcWi3bmH2pG+5pFZ87V3RunoVuYi/DM6H5zu6YRYakSUSwSxtCihgyc7GuHw//ABRmtBBtA2O3z04PvnDhP+mPfNzMMrOUZXNci9bpAy03jjmausytGbTe7HZkNqimRYjUNHivDLCCOiSsdJoDdMQHlE7nZKRgw7w4wwMcbEVyRhZtKgmdqkZWZcJUMoljAlvudPAaxcwoxWOlc4ZMNDI1sCqjSAKDEjOjwFou6XiMG+Gm9505KfXMGWZ1qpAktsEWkg5VxvPM95+6YukAiMsCvIIECojf779c3tmsXfquai9wu4q20v0b4p3MsqEXpU/QHvyOdO2ScJzDnLKwWfWsYWSL3Y5HOF43OUGW4Sd9yrWcgTOjN3KAtp6cwc+pF9xv7tpBVpWTApFxJgrgHJixxI/OS3iEBZ/F8D0rhzjtwHd1L70feT6R4lghgseZoWAXvN2IIVePHSzfx29STp2cZDhKejFRd5wHUxdKKcG0gKuwT7GnlH4qHZ9e2S+6kUQLFIAgfvnvDQPqq8NHu752Wn5czVdHleUYD7NZt4GUauizQHB4OFHHkO47aaZphDpwg8QMh5pk4BI/cFwGEBSxRTUfuh4hOBOZgpJaDhx/FSwsPfFQaM0YzCqJE01zCqRmBfiAwltuztR9uqm7GAdmmQmzkx5rdq6RAlvGKrZ5mER+YqznMGCDDbSwzC3dKJnVkCMJAmQP/DjhatrxrHnfyQrt16arv4LADuauZS7dXHVO9eSd2stx57zAKEIfr0/j8H71YE7Wx2JzWjDQpGl057oFD7O6kTLT0N61bjAKS/il1Ctqy4UO1ixaW2SIjfbG7fxx3GPvo6+jP9Ge+Wq9JjyKvs7JqfvQ+2X3GXv4Pvl87HXyPv4q9xl9cI+9XlXx2ryH77H9ICMRDkNdMfdkHp0rr0+/h+7yRu+Pfo+uh3PEoWRTY+odnGRBdmhNCEFKcRNluUv3YrjteI6kr/nZmBlyxD5HmSBPbgczz9tZme88AoGAaXd0zxHf/fV054tNVc3gVR54dqSnLB4dO+/VFRvCJZGCEciYsatTGA+Ru/VJgiSnbhtSDAd4pSgJhClWRja2xVkcAWbIQyYMrGhO4rDmTFvTQOBe7LBehJxpa8TTw+7kmKS5H+mWwKA63LMcEhinOD80Q73WykCdz9VX0Xo8vOIuGlsMAsqBeOLdtR68Uy5IJVpoz2FqaxesxgV/PCOVonZQB4aWUgP1PeAJ93kuKAIJoP7hUzc/xcefLbMVFRl5eF2eH6e6u6w1E5e0oYsZZin5pdz+eOJGOkssEEBbO0Jtj5tMwi5JYyiM7suAglJrIFrFvJMEPHlm9u6JHSumtibJjeziWJHYoNybjhjcbFRIC6GdcQZurQ8q70b3AqOG4FjHzmGk+BSt0sXEDRAYWCg9EIEpHAlJ1sRbwgMVuIWzgTrEuIu1DTrKZNFcBtcetJW1QCs70jzNO0gA9Q8f/tVG3X4788fXdcyjNxYpN3Qv1ifN6ZKGuiU21JJk/E6shc+lPVk9ir7DMroEEjKOauxnhkc/Bpsh9IWMgDHG+dy5AvUE77zN1lObJVDQelGO93ZaiUzAREvu0m1rohzNVq8rM9pdTkMzY8xaTU/rMopJCqNg7q5/mo2bDGmgHQIhKRLqJBYDEBph0t6gjXgTApApq3bfaK+kMR2ryTxOw+KR2OhXn4fPT+ar6mEs0U/lvAIB2pf+5/+f+/Sfj4esL88s26SblTRD3yVvizrhljzRzy4I3MVlsUl9FCb17610MbqWbkj6cL/3CtpM6J1QQmiojhleX+WPbr6/5bXYuS85BNoUKWqycusaFEywwxOKra8CbGvjDNbFECepKFbcZacYdsgeG7oAkznqOFbS5MtqNQEFUdeDJghFCoGQTFNyEmcTpEBUYm2MiGbPgisWt2yVBD27NOxUz/Rh735b3RMYcSov8UF8y5vY4N5//fOT23yybc7Im5MvO7WwscADZkozyWYDHSOmQVtaIY9VvNjlArVMxwmXPdapdDehmbh6MnbMFLFarYVM74lfn3LenCLQluzww6tQERe77ulLF7rmUMHQ2z2mhYuYJpQ8MDwznOwFNScrnJylOj2NFop6Vt7SPSJO4o2MCDCQEPak2VIQiCtNWklL79AQvJhEfEhWyH2j1BmTXewZgoV8pHaW1Vb8dHct4iIhKqN1+FqAx5/48FJ3Pn5d/EVzf3zXB31SknRdyr5SCskS4sHciykDVwhZ69Unnb7dGa9TqwQNLwB4GRqjQCikABEatYqUwkViFKACtQKhBHBBxRAgoAxggltUVsYgquBmwcRAg0JMQIAIICQRkphCQAxIggIkAkgYYUkgls3//O9/aDraIPOSgnQNFRaQC1AhXZiOo/HlPFkVErWS0LI1ahi+P9e9vBUSg1eh4z5PjAvRPXTxOJTLBrlDEZJMyDEGwWOTuyzjBkvaYZ1ebJgvAfCOEUGqJd5SX/Yixds8kKfCA37gWCHdBrlubswFWMbNI+tekI3dafUnZ5YASuEqDuCcu4VklaKKM2FC9kIfiUggriIRUgjQA5aFZWiJrJDiBcLeEaAIAJCWFSIhCQFCZ2CERulUKEgqgWnLejYcXBx9lsQIfzm7DCwtZWefZhBv/+X9rbrrh7eih7XZtbqKDJHDGuYUj4TF03iKJjFWKR4zUJICgywAyU6AKu7/G6RwDUhAAWK9UlbUySKmopSGSIGNwgQErsGmeANUWWQRJ9cFk579D5axM6ks+f0WAfxFrSf0TpTDWNJAA4qwIUKxcLU3GHEaaQ4nKgEAgMoLrCCQ5G3xf88HZ0rcvt4jF2RBAnoCRVw76s41kAdbwAZsBK73Cap18iMAu5sFKGF7LwaomU+e3s86h/AUtJhAkiTJgTuKZI98gQtgTt4QYeGUUkgAHgl/IfvH2L/k6B/n0b/lCl4FoCZUgAXjiGOBLXlhJpFLg7YUrNYk07qZsZ2AUok6LIiphqFscyY6qlsgBJKQhCxaFgpFqvAfR/jXbv4pMqkAIHKCipR1fGast0+TKhCCohInZdDSua5wIMkmjdcTTMarPy1/SK2X/1YEnW3SSZ4vIkIzQYEgFrNYACA8u6f1CoLj38XLfIchp6xBASjgn3e89slrrz1/2r+OK//1fEu+mcMYbloNXaSta+NzRSM1eDmTh5FDb5mVY2g4xUCSIfAV1KjYiTFyykWd5jnls2+d5VUHE1iWbN6pNASEuv9+mfz79eD/mAR4sVrSqhBA29AKqqIWT7FsTJ1ooniEXKmp0n4Ur983Tnwa6SdQymg+PSfgC1FvkiGjaKXEJFUAJbAkIdsh+oSaULySrgZEuSYUAAEAIgSSbb1W/cM1fhTpM/Tch31p3jQasNqWM+rcRpCoJzlfx76FRlNiNEzeM1hlyc5oU8sEmBXW99ja5pDNN1rR9RvrdWPoYJRooWlrW5HMXbZ9a7sPJAMCcNp0qHnwbPQ6O0xwkBVYZgqMiYJKwmIJAvLwaV6WF17/52dtt90kYkEliDSD6t713u23ojhg54WmUimTrRikEpSQ9Jp0Y6ojGI3eG5yCOHINQiBABSAsoITQHlb1XGiV+v/PbW10juoLT/wpz4QKjKSZxuiHmAiNxXnOsUhQTAct2oitWo2TtBx5EKPunAU3enM+dW6NhKXGLIlj5AYD1DfKJgCh8mK1CEXqVX6Ad5mNgPABqSnqRE0CQSGEpLuclFbrmnLXP7M8GZT4O1/lkhoflEc/uXaza8uhe9dOJzQKKgGb1KIIyywSSOJ0ApfeCmFwq5ZUOPK2HeDBJz9kul8DCAkAACJBSGshO3D/8coPXhUYnwx/VCcR60JRsAcpulsZNBYjM9ksM2KVT5cj3oUrxIOUJQoVOiaobBKBCx4TS6nQp8zHjS/61h932mcqguAnSorWBMViBAGRCSIrJ4BkaTEXCsPiFU86GuePRxsBu1cDFze3FGMk/Y5a/pR/d77HeNUzQ7TYgqkSAoAiCEgwu7GR6WVOreScbJAAABABwL1Pftjv/Olf6LBralDhpOjud//zj5fPP9B80oqwMm66uk1S3w70i88mETEoCYw0U5XGVPFgNtWsUHPFJiKN9h+j365Wai2nZUyph3Uli0JuIFc++9t/AiQnQ+ZA+qsAEQANgIjNsLwwH11MY60GZeVpQgKBgU2FX9uERZOFL7ee/wrQOuxWIREMDGLSm6iO2o0pEFvO52SsSUgCQKUKphKkxATSxmZrkCbDIgAAFAFYzVMX//ch5/sRAgAgb1tD8m//9fe/+99/2j//iPm0NNygVURE/dj882JkR1uImk6xhHOtyERtdJiMxi4LvNlhtJqwLcxaqOMwaQeZ2SJCwrqvfOK3/gRIIuW6RkJ4BP5kB8DzZ1EymtlCZBHUgY4UaoBBQkGjKrwhYBJKqvjcsYl+AbT/fbOL+1pAYPp6zv1z9Wao5PpCrM7dmom6S7ZB0iNJAop7ygbTrPoZhKpx77vo6VT91MfvtscfcC4MAACwMOOH9WpYrdq63tZmcYvzNfPVJYfv+DUDksqImIiJNDrR0VKM9WgGQMUg9s0aQlnfgUhttc39Rht9wHufyoGQ5NmOf/w3lDcv1fLENYOIJAE9zGtRlYShHoPZNImwkChlBqNuGV9yBy1Lo95Uh7dMArD9zCV1PvAgZebh/QbVRZifxFMCUxtJHIhEjAtTNdbJucknWLDADnKflGre++PP9bXKlD0NQEKBj2G6uX90Z9ny1+xd4zXyKvbEe2AR5izjmdUSDU2So0701kBzZ5lsUWkEqXr71JS06G2znRb7Ou1v6c//E9Ox57lPr+euuy2EQJrAbHxtqBOluA2UqoYwAgr8dFSrlUsblTaupDnqC+i6WcVgB4DxcVh1aUmb0PUmlBbKQikUU+OeCOZcoqi/8CEqMHvmVah6QqHX/vDrz/RpVAxq6AIACgBrvbX7nF3bZR+88bRk9mjFBNVql0zKjmM6NquUdFYSckAjBzjRnTZXWVbTtRxnoBSdZbyWu1cr/e5/N/N9b61hR7DCSUaVgZMoRqtYgkaqg6sIKTQQhYAA2x15+K4XrTw4GlDitu0RwFZZkA0N7oLtzS3OQkidrFMhW64Drc7KPAXf0/10D7HJAwMBAARI2MeOP/1pnbcD3/o78gGoAQCQ3Xnf2711O+4d99DuGOeqBqec+IDULRolUNKZ2GnEDnUJ7kSGy2DWKqLjKgEsWBncBV7YH+UP/utgvp4aatXoKA0pAVAAAACgvQCbACRDTWhZpwQKsclakEUcvHTYDn7YPK69OFf8HZ58nFsflC5yiZBFs7DahbAqlntosiqZkSNp1mZSYUBc2Ma7ujNPa8Uhi26xT6FEjcv6E/a7zH8W0vUV9KIXbsx3jw/fCFmhQ0tnWNixawQbVG0CEsZWUUUMOI9R1ddIOQSBHKZgxcn0aghU/NU/n3p27I0qAQbfOvZe18PJ5HmkM2ySNEEiwKyCSwLzoLWYAkUBi07QQQS94OC4ciQAKYV87yYDHWfV41LkDFJU7108mz0HFQhQb4RNlSx7a9lhJ22zjVaGhxQAoAC85e/p84fBWx00+whKgQVKAACgb9WXmeP8koNJl3bgpNDULIk6alKteKJRzkHZZpWZnTRqITDYhqLsWvc/1XZV85eLLu1c8iGZBVPq46e1h6euvSkiz2hXGwSluAZm8JvovehhdgVlIGbSM3QUUC2UTiIi5NquhcVaUISoAJgEYv/yXd0Dpb3j5qrNQJOZol3ykYxQHY4yYETpGXWiYC0jOCXmKfRyy2S8X39++2Cr2Srk2W265QLQ00NbEf3/v737DeON0RCjDlZu6DipcQpKIxpSFKI1VGYZUHZjUClAujE/AADsTzC0y19o2OpYpLbEsOigP5CSrskSRRqCEPCgBEzJMiCRQi2QhOAACa5ZbHfJ1VY0ctz/sb8vbAjoWkwFxEiANMbrN1qTN6NVesUSJfo45NmtKGuXzkgSkUirVrZ5GLnJ81Wv0/cKnqu1GD98/Fk+3id41y2ffZSptwLq5UOkxz3uf7k+vtKvbR9woRMHiWwRIJmkoA2cwyA000ZESA+FV5SwSsW+JmFki2978eqmmqT5zJob0g3WipBrbyAOLAP1bOrEgDotSWDgGRDBMtxFdR8rAhpTKvIs3ehVboTtD2iZUWGykk2XvMHhgu8el3CMxuC1k2y9QqM0pFMwbnMKxRqbhlfBy1vqueC6Vju/fjyWLFPE5e3G+339ejc20nMV4NLl/VP8efuxGb66R7UtqRbZxA4R7JzMShldqiuYIMZyZuIEvBDwdPlgOx+Jq6lOl9aaDE+P9DKRnf5FFSUwmkpNUoNiZKGAYmITmZEoyavYdm+DV/dvj10DF7ArNkCq/32P8rlNkG97uuB/3VWFdVJQdsHzmkxYExJp3S/JtJfcd+XAs1R6zgQm5KvvpXfY6a0PnbHer2u7O84v5BBLeG4kfizm25OG2MZaZm3yHm0elDFU6lAVApdFo+EapCDUo4AX2C50JP3Tjk/xAEVXXGdD4QAvr6tFzN5/f+f3LMYRQCBKBcImgLWVLo0ZaWNt3hT1JFX8G1AdUECHMcBrnekSzq0qqky+2xZBLkmonYjhRjAgJgzjHluvrU/9bO03y32AqKeTYq09z2/f7sUdppxqPJRGx/5l3Dorz6un9c23HyCPrZZTD37nzyPbXLOK1+FjPuoswKeTlkiC0wGrXeAFWJMiSE/yqP5ggIohKEZZwXOBmte83/vzHK+/+dgIGyCBCMk1uEEJ6pTYBANJ3OSiic7TxT7gy2nY7XbhINRY3WIHDeschoB8ehi+X2tBVhiw3JYPSW1zL11PGLoKA5myCsFzIZTY1rd+3Vjo0NJh1cbkdb876s76DQA9b6NQrr19CjPm+9E6tkWmgZ3SUIbvsWTtbv+B0s9oNZn3S+kMUL4eeYQFEhdWgF/kXL22rbporpXbc0ZgRJquG46Gj2asISQcgEIqoEQAmras9mbpzDqz3enr5VfrI2uBKBiBgQHg60TtCe3aUwpTS8ASOZvOoaXQCLLL1Q12l0G1TqyLudIWZ/rs/ujsS6tpLdpwfv343B/W+sLXyg73KJWGSA/u8bqG0svJCnUt4nC44kQnHKMpCwCuuGo/jKbtRn+1DYHXEILmczKhlc6mivKH87H1taeLohCX3eesYLO0l2zwJR/wY4IqEMIAcJIneWD7TnTgzFIWy8KDvmmxjmfsf/ZsZyWJokW26A4+l6W1+Ok/W/XozVFRAqUGKmAlkpFE09qfWJvl8wwve4xnFfR62NvxpdZNhrCEe2QjO9ZdCJX6Ky53CSUiAAAoWmRPzxcXGY1FyKwgk1a7n6/9qh/sgjIK4BWn5hUikaL1JBh6Qx8aSECi8JyBdfAQQFqDpxwLvZIHRRJIBBQJChskcUwG2U7Rbi7mlXV9FDCHr/MMSAXQi+7OKSTruW+uHP4Z0A1yHfRoaJntJVMqFviWoR/RqUM35pbTxfVS7q5f9+36Othl00Cbax+t40ZuToDDZ+tUIgegzNMnZ29//6y//G/jS2V14Hv8ronWAKsBxe5LstYLgAAABgSSVqcKYwYnrzuD8cGcSDCiXGGhl2QXpEo879ITPaTzEdeMAEnCBSlFsEO8Lc0dmh2Nhb1M8axHmZqvKxBXX0dB5MX6cDkNyZdxPDYMKbfNyDCvEDGxTHQ1QRDlHh3NoFWbPjybzKoXkl3HbvnFZMk6BCRboY3vo+26oJHamZYxcTy+v1fBAACo7sfzv+f9P359uHzynR+sfeqTsn1QLOgbAFAAFbq5/wbnz0cmFNpZM7OzR2PW4GSrCel6kRqeC2WbdikjcERUjrZGCQu1hJFUPIBBLggQcxdpBZQhVNP+/+gEYiYZmxGAtHW6lLA46+Y4cJQTZoIjtYvHApGU8izSMjTrMDNHBDyzcBs/hG+xLkSQqtooQV/Fo+uxTde6HvvLrz/++3//w4990bmrOQCEQALAmOY7q4QEQ/wAX1EK9UHkEngBz9Z9eDDTGACASIAQEQh/9S/DL/3B3qM3L3G2bjFrialVn+4yL6nKy+xHuDgEz2AEz0Mf/Ot7Pt7OS2rPgQ9ByVOw2VB32WY1oSxadVoEc0YtdU+1+nsQAGi23JHWet5OPSfZzVfmFhnL973psKMlkK0SYpPCttDwECdZRmWcIRUAAAY0bRvn6/F4NzKUJREF7PTxNRfkyLpcrtfIuDwDABQAABIAVjEAyIY7MBAPpsYKZCA3+Uc3zDUAhPppAQGEZWF+PdncseEz2qGGiCgo1KlzKNu6ibcYKJhe2j1OhH5oob1+0+uoCSAjcZNLqoKSRCMkgLYcplaGbe9XuqIvpJqmAwOCJ9qT9dQrzbXV7U8472uEUkqls4WIqQMBBzQV9UTBqk5ZgyTY04kO7YtcX2Pb30mQUee+cHsz/mrEXlJ8djlH9gVADAAghFAhAQAAQIJlK02S3yG/SNxtnS5/S24AFQCgGxEAAAACIlRQX83WY4XY0FzuFutmCg0lkTALAWUAQLTNmzrKt+wH89E406HEAbA/MOu9QzZfiTodC3o+6uYdkK3CIapVi7p+OqQmr1aVMWdr48ijxWFdMW/ivjdjBHrQItSJtbLywSVOrqwzKQ0AyoBpPx5djm/bz6499wdOZIwV3w+fX/NjNOzMZVXLSzlK2HUgKACeVe0hbnfm241d31lrrT2jAeRAIAEUgBAADGhdqqUVBJfcd+1WnatUJ0t6WK1JA6gBAFkCPtv5jXiyH8IomwmmmcxWEotJiFJq0Uu2mqj3ooi8aqSoM7j5sTsoswdtrvwlCbXUhsIW6GjBx2y6D1f7wSZln2AdUqzcbpKqUFCjEx97mACAALBqu/gNb2R6BGkpHtkP7uPDn+KTzvmk+Xxp0QH8wzn8zRSAAAAAQABo7Lz/s7/A7ad3WX/uO7w//g6AAKAEPOY//+7fBQFAYAAAANzFggRFu0NlYlvjIVKyo3y2d583BRUdgu+7vN6C7MB1mNgtY0yJ9FtxoVoCBPcFD7id/e6i2us+h1O0DSBGngJiAKLxZyIc2+AjiWVEMGn/2q6WmUIYI0VGCWKHuNTUYfdGThc22KdTbe8/2F/ELNHl2AomS7WHXk6X0iCaCxCeMv2Sv6xHfiI7/wYA3tYgAxjHCz7nq37VN33bnwOIYAAAtD5//cc//9LvyfHNCQAEAACIAGTX9vdkFqBmJzFZIjVKOBZeu877+aSt3rbO5fEex5vA2ooply95au05xW03dQpDoAP3jdQHPmXp1iqCvQDtnYnZ5KR7yppCBRAK7mH/kq52sIwFDQJjom7hNOaGE51H+hxOT5oZQ+tbuuSsk0eaQ6df7enmbAl4eRdVJarU7cK/9d5Pr+5fhevGBggSAMUKzzsQSXq/5dvF+wPaL7A2VnayMFcv0PSGQeQyUkxgE6Wz+5lfAGABoMw2r2B9uWcaqfUkkO7nOnusA9QdGnvihyBwQBRqIQS/apGuANjBdLs/IgJhYjy1Ukt0hK670m5Y6mi5p20kVxmNkJj6QmuysgO2SJl9TdcTD//q+vi6Hfd4OHPbzCStXLN9DT8+1/0XAPXMGGNBp887fP7nPP6iMn9O+Yex87N1BRsASE2QgkQBIUgpFQsAOpvMcZ5tftR6QN7tKAsdRbqc7DIpmGWSFDCMbusqOESKlnnKo8zajv9f+8fI6xX3S3LZqeU4znG+Bm/TQmYRJXAEoD2TMq+ZRGZdLCpkCgA3a1ruShIgsTlTWgM0LQgapuSGIwiaAIEhbsxAI5SFPXhVl/DSyqisr9PdzZrbRNoq476idV+KEOC1//6o3//9f2EjdDJSGSQrFXoctC+9+2u+1md9x3fo54kXntqj1//rn/7udz15/QEyLzDDcd/+/5Hb1TzAS7VUsiq9gGQBRcgNk8wSj8xgBCnlGrBMc67m8Bq7S1IjJyta7T2LIXf7gYhUCqvxDEWbRYMLzoYYXLdIc+iU2YBYomk60gCottEjZbEto58l6s6So2xoyYbCblhh57acti4aEYnFtVvRk0t9HcqRlgYW5NpqbxPPNxgOQOvjl//gX7ht5cCBIgnJAiKLw/z2zurpJd77LV/uE77ybc6fnpA5CTDfrz19/V7/939/596H/4A0cB3MncjgmuzjS8S9juu8BglSSAypwqFQBQasAqEIJ41HjQbJ59bEdQZtoUVdgx0hEvq1c7geqQdnE0zcG2hTeubHAeVARShVPJRqHKB9gCngBMz9hT6mqBVtdYgqUeOK5gNb2lXj4JBOMbjRrG2zR2HGo0TEUnpSADJj0cyyD9fFLs/fXhNJ71sJ5kOQRISCNIlJniWwcONmF7dhz0JPJ86fLgxPJ9BDu16il89ZLqvhfKoPIpgFdhmwla7qNcewP4xeHwCE674hAL0IJ6qwLlEVb/RBB4pxjdCS9BRILrhW0RvrMgm0pO1HtcvTwnEGEKhXnCF6qG1Or0p6+bh5U8d9/ByAKxNTAAF4io6jlPZZAy3E6M7rkU/vl0CsHeEgawApMXccC/psnWFrls0R7hMqwmAs+zXeadNXAc8LFQvo+rhoa1ISlIIF4sZi3PNQEjZBO6TKsqRSmE0+DTkYFHoHXAAlAz1okq2SMWJa8Zuz61P20r4ASLnm23plFOx3SlsNXGgggAYnnaXMGGbW/akedJRlyUzxw65oLgf6fai3mQEhOSEwGBiFrDJpkZCZYAoAfU9vAsDsWC/nJgRzF13EwSrq0vo0edc400YaashV1sCbNW5i1C2mmBKxLyeK+DT3eQwoF+cKC0AAAAKQJ/NyopYoyaUkmMyEK5ci5NuJ3HIYEGNBxoVcsj6nlBLIGtQprdCpuLFIzihR38rKf0M5tp8wYusATnbooHTbY/NxixQ2QU4BCOTEe5/K611QYKl2SHt1rer1oN12+kNo29gdD9uWkyQdgC5YKAtka5Vi8Qb5qvXE3QIZeBp2LoFSK+FfOkuyZWhoxp6Ahj1RF6GZGhcpSaPzm6Wna3EKFszWentS1FF5TtY6htm/vdgDTsEya/EJk1SJYo4AdASV5O7moFiqEZIcbADORYKXD2OVw1mkEBIVmjAIQoEbye9OWklRDzJFVwA4EV/zHb9uHOf0uEUyCAQy5UQ7OOXUcWARwOIrBcm72VYatqNxdLoddBk8YDciI4KRJHTD8C2jdxcwEs/8N/HOJIA3cGewUZhhXlr3cUFU4NlUTWvZzu44Q3MX8+sjZ37RFoLEUi/tLmZRmoejbBsvHy9Ax0dmHGQjeQphj5jQxaphEpbsV6jGckhrbCy+IQcj6EHasA1wKTCKoEggo0qrwnL0p7S0AmfyXei9RBsAABAAgO3T63zFd/+2cV5oLOAgKRGcNN4eI3KKEpslRYaGnZ2BBxyVFIsLbnOLVgkKYqSDomN53YarskTOszMBgBnaCMAwzvx7HOvWqRKSdbl/wlU+TVa6eUCT5lW2HY5Zal+mg3OdGx2wxVD3hUCE5Ajvk/tqJ57zeM2sq9ifEeQIVKqQMJM0ISHS4YgdW6ZIb/SjaJAk25R+FpXwpaRCFRBkSZEELBz5w3WqVweDiQJLXwfXNCPDzac3+oLv+m3hg7JmoXByCIWSciaDVg2BxRuOiEptSZErY9uzVF10iS6gsALA1SjSxUG6VkCRk9wWpFd0Aa5Akr0uzbmTjOEsw0k6DetepeYwY06v1qE9QMgAgAAAUCULJkzNfS1vHn7imd/69f/09D7YZtsVQkWRRSAAjUoeHcuIyKbrUXHqQl0BXm3Irzh1lDXtamxgWQxa0rVQcIAJOWN3u/Rl3/szPuPrv1tkIAcAAIBlNNKJ99X7WXzhduYnQMXkUox6GGyySAK3AW2GqNAyLdAAAsJUAf2Jyvtqm3EZr1EADAB/itrSXcURIpN1P+/WeszmPY/PnY3V84drc61qP5FQ1ypOmLbZ5wAcACAAAFBkWZ/Xua9u7bi/9sv/od42NMMU0YRQAQIKShorYqtlO+IZt8a87/QK514tyIhEqqBD3gmdbVdRWLIDh/pMustdR2jDcimCLMelL//en/XJX/3NIsM1We00q7szm8/ZHgIAAAhGO2znXPXkmmw5VQc4ls90YQs2iCGGSABxBNdZqbZaGS+nzwJSMNA0EQCkijmELFRZ48zUJ7LueWl0w464Sd27meZKXZWDrtrbmipz+uBkCo3jyhd80w8CXpA5fH7fvUGe5hESDMmx6gIQ8EDREGKQXBJ74l0cGwfDW6rspDB7t600mYl7oFnHqiJSa6xjLQE6ldiQIrGwrFtf8UM/5xO/6usgdk13JrxS+DKdAQEANcqWy9XXGdcUYgPLzgy+n/b8+vp44LNzJBrACiC0gVZdHrGLg1Z0Ae2A4ZgmIgZcuFqbpMNNV3NGzdNqfctAvTxFNdTjYHy3s70WQRE3c6rRbDVxhEIqAABkA3jfV36Nz//WnwED+xPsHfdH2ydvYaI0zIQBuIRBILHiiGm9Z6gsE8UP+iDFSRlibtcs425ftOPxUcV+TGGyh4gVAK4LgBzkDXYpy4HVLZDT7nTrS37g55wUAnAOviwHRE+B7FjzjWZz1z2FOictXr88X7+Id+fmfsg1Cx+hG+Q+lpW7miyRXffbHj03qi1IRkjtQ1y0cGxQFcDVgMraaNpIVMIgJNaMhG2NLAGkhwVBAACAAKwuLwEZCAAA8mPzzb7XWl5wQ5C90AseY6EKKKcoXYsAHBflsRqVzrXf1/5NT0WuHM2cDmvUp7llchDbSc4dS2Ce9y2iMW3IW+JIu4Ed/LRBz/oDAFC5Jj7QAABAwFTMFY1NjloxlbyzWe7n0WdzLG5wpExcaiRX3qbCiuJeMqxACX5fv55aIBCEaYDbvk7AeXbfCQJUUZ06B6sbtLvZ5ksqdjqO5SidFD3hgI6Ig2tKSAEAIKAUfGntOobvSaFDXFIwESJCghlJ7PQ18RnqIqb5OQlmF8Of8/44+0cz4REcdchxzrg7Ou00H5RRWKq44KSJd5hKQYLSG0dJCjgiJAlCBgABAIBiAD9RlhmRKRw0Nxangq6154tnHn8RrFcmargrmUA1Yjy6err/uFkhM9Y/gBL7Ohe1/MJBZqqqgSyAC0vhcG5Sp+YQJWa7SSeJbV/H0R0RTs7wkAAAaOe+N7776/Br/V5+ggvaFoRBwxqSgRuOev4csWzpeP1lqZyuVL5/5tdfL7beP8n7J+u8ae9Mu9rH66d8/7+f2f0T44jpfsG6f7L7/3tlZJUJuEUCNSrwgGRzWZEYCZSTQAAAwsghkr1zzscKReBcn904xzKsgTqJ9sHba1+1Or40+vnbeTDhpl/73rB0T/CzfAwQi2NG+rf+a64vruiigHa4QscO1wPdbVOZHOaOOTA7LCHmHYdZ72jBjBdI/fLXl3/9V3/3n3/923/zz//Sv/7r+5//eQIIQi6GNIEBEJckCyoJOYRCQgUACBIrdCtwEiYhAjG7ghNbQgQAJFaAgQkBkgSBKRkA8tUZvsz4GuP9NEAIO6U+qgBaPckR+nj/sr9OLXMZyPeXh58VPT+o5OH0gzvbu9cC/BcAAADcCL4GFE5/Ts45khYCaGlBlzQw7C97qY6azGTU8yoY60Uon0kIAeCdI8JwIQQ32oBHuqM4VjpcWW5W8Rt1tal99Seq+j9HG68dD28BOG9XTRcZaW5tHta5b6kcIRVfGnUTMoQooUSIrG5zuXPr+IymyYojJ8mUUERl0tn66lfR4EUUF93/jjLCf5oDAED4XwEj5j8BSgBvsEURtoTl7LR6+noHL5ifaf/3iu6bv+aFrJQRvWXvuaDDE86UDgIUYFDK5n5dVUgKdSEClnisk3W1SpkhhVBmduCMjWoCx0ElBUMwBMOHqC2qjAC8pgWA1zMRANgLKOh/dbpgCIbSVxaBjeUYpGQUDFjjfk9VztmfP5yMvvezXvNPv85nrI/Bg4mPe8036+xnJjMIeU50SJToEJ9DLREkIkJZ5QTppDiWyGN9oxtnSOGd4wiX3/uLb+NdkkASr2ZqE5eb5xa3cXec+fFXfskP7AsAxs6lAcTVwIBRyevyrPB0vhBJoRvpBPMelJq7eWPaQKhJHVsND1f3xqf+xv9+7C84A5AOWYTmomCdRBCwBVgLDbk3S4xccxgFAAgTuLYyI3epqjMKIhajVC4BFFCWITDkaSBQGUawTr2kQUnptpZKSgAoZqVcQSFQcsMlyux//+f3QOZABC7rk+3xsYv4+offf8XtFSf+zod/9SPAG3/2VyOxuDKX2gF7AEzS9gaoQSWgWN/JObg1h96LuQ6I3teLnJ65r7FSqNzNa///57gXCxIqyVIBkNAafc2ardCaXYDJEc9r2KowcaUZCQYlJkevuRBpSxvWF8akN4vK2Lt3YvUBrGor+gC3UmQHFaxGiU1KsA1ieC0zbZtBAZ3o5UYvhApL1uMMnUI0MKw8r+1w7dVxGHz8F54dCwAA/VECxubTf0IKoM4XYG6iHcVaWh0srGQM6WEYxlGgO973fnz8zA+qjzmWGVYpDiEwAhUu4VUaski7XoUTLFLVJCfHpnze2iiYlELDLke3TdwHmL52nLLLj9ovVMuy9P+nT9rFQYd1q/N93QvTZiIrf8QyoN7OJ3qjq7tjNRCkxmMiqAPsImFREEf4IWGk7FAq6XXQl1A67Y8pX+roLr5kfQfw9r89fX4w8x8NMPwwO0b0zZsNgHS2BYQCCQCBFITQBaIC7eeXlsb6GExxD2gSSzCsgQkCWqEJmmEhh8owacNnAaIDvRnR89NrSMhUGHZZfhxvMGtYKHvvxGV92ChxCXo69wgLGuwEqNgE+CTu7FsN3FE6P6rOCpWpEkSobFUefbYQaEUKRLOpA7VX0imMJOoDjLr80rOvPucrX3XZ5u1nv/gq/Vg85nL44fZLOIEAlZQekWYOMUdwxCxSFwUrJ77AXm2WbTUOtPNi2hZogZAQljDlgFqBALRhhelOK0l6WIZpIzH9Ob4xdSYX2FIDoDiot6Zdh+qR/qqg3+WzehZ3QgYQoFSOAMRt2rgrEnTJSruNk1+dn7dlkdq65xlf4W7SqBKzsCW3VIlJ/Gq8UEDpgirTZ29uDQyfynmuvbjlLTAOeAHVsyiMQFSiWaC6xYUIWuAFGGZ0kTvXW6tGpQxuWqEd1kXqwHE2PubyxmQ64JU60S2Q6JlEE6liskzyFmAMk9bIrQklK3OPae+wxk7XrMuyvtvoZOaRUqBIzJk0EzplK5LG2nZMz5Bj60TfpcvVyUo0O4xCd5OWbPFIwWZLB0hG740P6VYxxEXIkDPjzQ8/eN0Lr13b7bXv7qrpWswLKJvF+VUG4fivhSPE2JqXqUTUOV3YGPAxCTVAFNEKa9v+vIruQjb2XhFvt3fhyNqkDYyHsUPiRHaxnQJGtexrpE3URS6FprNSTIWyyxs12flumHyUx9SQGkYpHE5mG4SgM3Wi0aKthwhKtRzx4OXKa+7NPW3HOzNc6E6ImbKklUgVd7HgIIlV5L2Jy/hC2Yd3o29+1p8FqHYksVjR4OZorJtzDkkWc0v0hLxDNhfKMNWeVKMgC+NYyVZaN5s9bZkJvKc9k8AJQBmFmt1d0rJCiq0RHfLcbTfutk/1sT7CCoSyhrL+zNu+5/KqO/jqOLSNmCOxcewJtBSCdWKiiZa+7+wS2yicPs0ZbNs9a3q7w44nSLKf6E5SjVxGKkrJU8J2nGXalZuN8Y//tJb68d/5y3sBIn0tJLXFBbD2wvxrx6Uzc3PVILmKKVQb0YpWMkElTBPVcTWhJJG1OxIk0OtjPddmcsbOlaVPZyqZhdtsN9AUQVabHIwYvMzTFKmGWqjrkGh8KzrP6sw8XXqedg6OsvHq0EEfwUapcGmebFqOzFIOOWrVnaw4NMK5HK2DhDbIkkAzOEZ3aTEEeZcsqa+SX3Kw/+zN+/1wJfWr98EHvyJGWkzbDyIwxUb7d70bUc0RsGhZuYukcAfRnnJKdECyXud8sye2vvHj3++Pu5yAlurk+mIfdHUVTnsUbYCxTV2dsO3a27maGhJpYRsSH+47Uz/2hqvzI82cdF/kI/mMWsz01FMjtuma3eIuvuNox2RXM0k025gsME2w9bl1yUdoh9BWrARt6b0pMkXaaxnfuiaq+Nrt5t3T2+9928uA9r36tVqwZI59lRsuk+7Nx53EUIUQSKiIJBfU8AYsvJn3oAndlIpQ5GN8v95jZlq3d1Dn3qr7noLICZEduhkRGiVKaCC3Rk13CN7iPzoNw13PcreZqhzLSNEO1FOlJGWWCQlNAK1pp7GbxxRWDIqqaGTQptqav6zWO7JksjXRtGkEVK4ksrRKP9WrgpSzn7+LX/oY4Lt/gQRYkPYBgM2TV01NWwCDSwBIwcpqSwOIcSCzkbnnSqtunHB5xriSw4cr07hn3fG7fM8+PS5pV7EYp7WW3+o9cq2GG4s1UrJuQBpsK3MM6yNJp+0atFFf01f0sfjYKq5mLktC0KBusDlWZZcQjiS2XA+52trV2/plDepa0S7z3UHPzul9ZLtHPnnY3N/G4Dg2NVd/B/Tf98Gvxat8O4CPFFwB4Mw6SBRRiQBrc4FamAIAD7nRK+CJ9/7mn/7wy//779tMguFsD7EMMcVI6Aqr7LQvoLNaqtgJRncCGChBFhDs1M2AVpYmdlHAtDWkci5HhZNU8prJKMLRAp2RgOwt9FBWKRJwipeRQkMUCLCASnRI58m+y2w1LEd92n/36PHwxnFd/j5Cn9/xxGEtllSfReAtgABQFgZxAGqrra9dfhb/Q9OFVCT4gkWqgnnA/QaCU0a9Re//+D/1hxTyLArKhAoHlaWQ2ijlYUMYZcYy2nfSx8hKvsm3bLAjE0SYMoYdMnKIpKBmauE0XNzZvM3YmiQ6JCWrhnZOejJEhVWAFhZASVvphdlG1dCRgADELrnTk8+eqvvMPp4+KO5+7n43wL9f7NeAhQGxI83gj/l8/ki+K0zVxMiSVMISitBsOuRDw32XK6vGqAupJE1y41kNzwDLDCPk5aySiVs4Hzqu7o/WHX6LSRnAnUEbWaoqp8QEY1sOg0W00rIUGBRHnvGO7woiWpJUqqQDVxaAO0m+odnGQIzF5pIqoS5gNP3koe5/hUZePrMrAP72DwYfWD9R3/6Ln/BrP/1KAMDJGAO1zEgR4nj+fh97ySUwXzBKpBCSbFm60ksVkjveQQZM6DBMK60ie9AES3xtLvWu3/PYYfdF+aTd/IgPaSBYZDy5ifPFWbYXMs40ZCvriRQTXt3dCsPmiHNy32WnWPpAjYfYeJNqVOOVu5UJTprbYkeHOMKRsMxXxeWZvPH54yyAv99OO8AYwEdPtMUBWM1Hn5XRYSlJUkoCJESEasRKFQApbiSdB4FRdcl7esJZl8sdl+A98/ahOfozdLd2uON78DzjWb9mXrMsDWONzqTdWaRHgPYOTYzDMqvRqO3kZy5r/LgzvtTdrZSHx4mXVyRPhi3X1D8HQkpkoWwiErs3y7iHoJBle1P/GsNrX5J//9QnHw8w/sk8+CX+8S+AjyJAxND79xc+iLr7KO0VTrROA1osFkA4lMVaomoMUBKr8U4k4xhITWmz4Mb16PIYZT/fOT2yuwWtuN9o5ssQMDHzIDSh0RFwu6NEdNp3dbuj00zfdT/u7oyOW+Ib6Zq6bZ1iJJWHXdbvm3vbhoaImzEIlWdepKOxJRckX+psa/lZX/Ga7QHWv/S0+2jaAQCA7BcSYMwqX/DrVLz2zdgQqIfZkiDy5vlm43tCwhd0WA17Ek4tC0ZIm9hw85DHcf/4WqfbvZu9MyG0ryRvQgJ0tGW6prKOHVytlg1CS12sNZDFQ+Pa49i9I7jE1wyVVnF/vW5G3t84SviGq627+7kv9bLv+x89I169fC3/ua5dbsNQbm9t45vPree++Zp690s/+Pd/M/iB/Nw4wEcX8fY1AazqXS+ncT/2dTTJbAkA2VKshkAyUsJD3dorCAw8GzBUZi1Y9oTE7Jtd3ifrz2xh0GnjWdCRBKOkeiPdUqfW4JRDkhYSahBDOL0zv2CYvVRLAU+X45e8PlY+1zQ3mWiZnW27vdTZwwPNGyS0bXFTZVijv/N40Y1fcv7S5kfGZl/1W7//3sfgNzbQilG9qcMbB8MGpjTZXzTwIBqS93gG1LWgoVky5qDOGebAYxUGR2AhNTDq3NBI26NZjFRYTqiS1Q7CTAiQZhkkByQJGVkEjUlLtXTABI6kFhhkq1hgajlYboOI7cvW8xOSjp5v9+UettmoOqboKu4w69R2LnBKokBj6bkBjbRPzrDxxkyePNUr9y3ra93+K/UhsPr2p+nl374nwBLcUDaER9cuXIWFpcRdamwvIVkomKRXY04Q4ESjjCNRgCWtRcFCAGUYR40ku6RAhz2ceOlZaMlS4hKAzYQJDVDgsqnKYvRtGajMJRaphksGMKi4hWUvHTI3bFhOsVefIadT0Ug9S0KTrVentSNjYdeiheVspKx3eQoeYddDvUz4gdVEzoe51q2HaqU/H34+DZhcTMsISAUY3K0PapQLKWu1CSX9hCLGSpihpUKPBLI6LOHbxA9zxOkizexASdqYNJlKhBSbWGyJqCWmYKCNErOwJWQKVLI3GMkBWQyBsAItAslWNlsg2aQMxv6ESZZ2i7LN533WbRkoEzZnU7M4m81w2RHSce0Ettncj6Gb8uiSYfL0rpezm2vw1lLdHEl6Hm4MjN1ejn0Ne2iLkx6Wdx6fC7KWY0Zo3ZRaaKj+UJT7znQeLY1ekaatIh6QkGYgJdbAFm3pvdPPAJKuEziGtUpn7KYMhRtljmijFdjoWs4bDUig2AyOiFaBBMKtsrnFIzrSdNk5P91zMW7ceXqN7WYIojfwyggV689V4xmSoD5rFfq76qM7TU8B1gboqPXXp6vnmzFkfZTGK8vv6wBgEmA5ju1CgMrotDYvs4YJ69ADpKvw7XSw0+mDqxdPItvNevx2MSkai+aj8QT0iEjBggAuERn3EBKoUA3NaTh1N2wSUGMJWBgRaugERkGhTZtchru5g7YAMEJJYrQOj2Z476sXu1NPbB5PUe3M3suS6CM4uC8M9KJS9A6C9Fg2nuXx+Xo5OfU3+ad/vsoLCRi/ND4xWOXE1ck8Hg8Cxksz8QEG3exUDXEJvDfr2tz/kgdnAY4EoLnbdP/xOGh7vVx7oBL3Chlb2KiirmAbKiFCgTMrrGggBnQGnY1I2stGu7gsNyIiLd2WykPpJDTkSiVfRSJ9RAhOaW76yL5Xdx5e4s7Ty1z2jZQnLCs9XSNjUen8uE/aDynbBKRJ4uTf4RzLyQ8M7rtxeuMlgAoUgAK/muBGMB7A7ikBluYiAPjM1GK3dF483J9OWi764ov1nTfig1/zvd/7ZQAN4Ht+1KsfjgcjV6nxReuM6eokMYxUQVNESVCaCKjJ2mskYJVUU/YpNCAl0yxcMhgYobc0ihBud7cfAyZW1bUBO9DttjuVzatHbp5eJxTYJ9R7UMfbsYlpgSJx8b+k3a8h51xxBp/6U+26+wvwDQDAK+ezABQAwPubOHG4phLtngKwRBfBALAAAADQ/l9870/9fUc/qgYowAOAqz/l66c/k/rawdWo6CqRHqEpSC1crWftA1SQJzyk9YIt7Vx4GDaqm45hGm+BLCFjubyTlcLO0lnCYjUE4aLL9rPPffxnv5bpvFVtTccktJWMlqvDkZHwiak81PgZTJ8CeAYAYDNeE6DyZIEDrSCWbOTFPk3xFgGeFxfg/xRhO/sUtU0CeODo8hdu9q9iQ41y59UD+v+90DMMp+rjuXScgqstPKqQFcPwMGlRVJZsTFoFXOjQzgOlxDlRJW1KQpMGrocLHSrljXCB7FS5se7mzWG7z9SOapNHsIpQvcEHo/DI68wPjvxBRO+vR/gR+APwwWp77jBmByAAK+dkJ+nfO+Er+3r++vBv77T5tWnzDhr05V29c9HXzmO8tokKTZYeg9IQUNjSJiwN5ibDqPHCJwmPUXFzJut6WbjQ17+vSMMSpGJU4JaXp7j92UtR60sx1eJV/V8umAG7IEg7xRYe6013ffCfDuc3yCtqcCtMisVp18D/3U9H0v3G//aOPjZa7Ya6k+7tDi6Zcv1y4OONcbbnneM10w7H3vr1/x/aSPdy0OXHI3+eK7yw9fw1n50/n1rWOFVrD/6dnZZsouVrT9qfKiXs+/hrj32vptvuXmvHkq124cZf1NdT6qO891aCETCIVbY0hRGAXZ857oqdyzef+W0Y+Gfr9t5OYMH0n4o0AZAE8Ckw9AVin6q7BUDrMKPdfx83W+jAXQv63hsGsb0fZLYJHSYgdPcmgQJ4aWsEvMNkJHT2KWwT/9uRPKVOiNjtEAh2RsCA/4sOAAA=;" vertex="1" parent="1">
                    <mxGeometry x="586" y="365" width="48" height="48" as="geometry"/>
                </mxCell>
                <mxCell id="23" value="" style="endArrow=none;html=1;exitX=0;exitY=0.5;exitDx=0;exitDy=0;entryX=0.75;entryY=1;entryDx=0;entryDy=0;" edge="1" parent="1" source="14" target="18">
                    <mxGeometry width="50" height="50" relative="1" as="geometry">
                        <mxPoint x="440" y="445" as="sourcePoint"/>
                        <mxPoint x="490" y="395" as="targetPoint"/>
                    </mxGeometry>
                </mxCell>
                <mxCell id="24" value="" style="endArrow=none;dashed=1;html=1;dashPattern=1 3;strokeWidth=2;entryX=0.25;entryY=1;entryDx=0;entryDy=0;exitX=0;exitY=0.5;exitDx=0;exitDy=0;" edge="1" parent="1" source="16" target="19">
                    <mxGeometry width="50" height="50" relative="1" as="geometry">
                        <mxPoint x="490" y="455" as="sourcePoint"/>
                        <mxPoint x="540" y="405" as="targetPoint"/>
                    </mxGeometry>
                </mxCell>
                <mxCell id="25" value="" style="endArrow=classic;html=1;exitX=0.5;exitY=1;exitDx=0;exitDy=0;entryX=0.5;entryY=0;entryDx=0;entryDy=0;" edge="1" parent="1" source="16" target="6">
                    <mxGeometry width="50" height="50" relative="1" as="geometry">
                        <mxPoint x="770" y="535" as="sourcePoint"/>
                        <mxPoint x="820" y="485" as="targetPoint"/>
                    </mxGeometry>
                </mxCell>
                <mxCell id="26" value="" style="shape=image;verticalLabelPosition=bottom;labelBackgroundColor=#ffffff;verticalAlign=top;aspect=fixed;imageAspect=0;image=data:image/webp,UklGRppKAABXRUJQVlA4TI1KAAAvf8AfEE0wbNs2EmzHMO7c7j9w71khov8TgI/zeAhAAp0QANtJgKNN7jzPiE3x2k3yCufoEvMydqTSJL2ZGUviQ8JIoxnSJRlKAY7wCW2LYUrSxVmgSyKdBLb3lqTFJNedYK9KwjTJ3oAe8XsBO7Jt09a4NvIP7H1p1OH1XbXq2Y4BmmvbypqdL/59yMUdDs4vBuAMgPkPg3r7yUsDSZEkR5KRJEXSjFitTvv/56miKJKm/xMAfuUdOAkG/PdRNhqv44fUeNRg5y98tC+py+Nw3KpulREmw8TEww++3ZLZjyTCr4zdmlvLW7tgB2bso+ZCAIhYtmX4YsjasCb8Y6PctI9dzaN5V1DTJQCxkEAhc31Ytl4XcVpjV1E7u7c3NKgBwFhwhhGXOdnSxswJnd3zQowYKYAJBISQWXhTWOsKupYWKFAAVpqhRiynsNz5+DKvilqLfksfDFavegBKM8ydCGnzddI6sCta19Ki6ObGau7eEHAYPjRd0vcnqblh7fixXHLKfj99FN0qVKEHQnChX8YkfF++pt9Lt8Q1fQ0huXH4Rwgwfdr0S0jLtty6li2EEAAA8KgH7Fs/ZJkT0qKA2Hh+AaFLV1ERQlR4P1b/gE/gd2IABALgbwaDtm0EzeHP+rf/hxAREzD/Wl9QYUM7M4N2Wyy03XwpDlL1RmSR6tFxMjN0Mo8smNU5P1PS9s9tpHxVKslymg4zbnLO9BLYJbPmYWkuwgEQx8hp2d5xAUSOsyPnyaGzoyyp6k+wJbvtfh6WnrNtWxzBtq37+/8IhVTMjC10Ig2ortyoqjGGAxpkjbrjGt0hBwYzM1OilFLE/390rW1PI0nvL5mKZqa5Z5mZmdfRUu6OlncjiPYGRpXOJUy0kLXDZWZmGGaGqmquNksUaNs29WZr3/sltW234W/btm3btm3btm3bRm27+XLPZuC2kaIs3Owe0+LMBzxp26ZIkmxr7wciCgbh4ZERkVm4mJmZeXVXrimsaVBvtXgEjD1mZmZeK6mCwd0NVFVEvu+7VrpFYQ4Ak2zbqiRJ2ufc976qmpkXMzMzdasmwaOJyRRXi5nbzMwQkexkpqr/v3s83bZt2ra2baXW1vuYcy5tn3Mu275C122GbCNmB62o7z9hxs2gHbps7Wtfi3Ogt+aLtm3Ttm1ri6W0Psaybdu2bdtrvdq2bds232zbtrcx1uitFgaSJDVZcl6QrH4Ad23bjSRJuo8AMDePyMxq9jtqcCL+KDAaNCdTnRHubgY8tla5D1fAjyRJlmTbtiWiHhFZVWN9oN2Q/+4/shuw4Q1uaEPrt0dVZoab+q5t27bdxrZyaX3MBUDv51/4GHaFBfEbLoQZ7zcpCVizt3DgNpIiZeFuObUw8AUgwP9CJ4GASQSjiCEiBj5dCBJSsYfuFlqH3ZqifXg1+ComBWCg/9Z1LeYOAOW0IFDs68zhLZ6/equUPGRBBuV7v3c3l6L3XauLFta0JgEDYBL6Bj4NOV2k7/UNAgAARN6sOzgfGH4h6vbJXw/MOL4b1efqktWJlnAcF5amU9qiIaG6ThXdK0HrBulWGZl2lH5dMEi/9U2w6OzUHmvWW37zSvdZ8Axga7M3r3wOUFeqf99tR9Kl9/DzDr/dHVrh+DFbvlplvWBZzsPMMbMlOK5jlEwSQgW6gBOQcQQBLuAoHfXiMabRtcHflNw69Kg9BeE4Qz9bVx48PXMeaGEPcGmlJaTp35xLb/fb9X6+cwf516F9c01Tsy8P6p0G2AauKtJmQ3eHGTx5VRWBbIIf4BHnxWc8FwoLTDokYeXTNqGVdLQ2QWUI7U1EOE5pbdI5Gea+91cXnQcABQYkCTvSqkq/z7MOMAT4Ov5p4ue8cd7Hbz64+e76ob0HmIs/MznyWVNtPdIq4xiknFG4JQJQIBMZxcz7BEphJFOpKDscoHJXBGlEn0Mk7yJ0TNdpYjv22Tlzyrazul+Sz/0SwGfvVN/4RTpAD7D/4THD8vipw2retyXybO757U1cfOpK2dyKrqpjRHPPMDQmXVzGAsk8YpbcQBACUnKVOSUQisBgknaSsuJSKxGd+C6topXcuCVitz35D3F4i1wvdKfTK8944XtA/44rU5i0I82AHuCb+Oop/Hq9ZXvvI4f75YKXfbTvS+W46W3fhWckMjPgSixrJEdSYxAKRhEeVgNp7IYsNYwZmiSXEHAwWGDpethnQz3BsUBDchpYUyBzny+7bpgnnDB695+9fBrgjDvnf+tWDBiDAniVHx95ePzn6n7fzr95XC5+792Vpy/Peq0WNWvQnaB1QYRjblAjK8xKEoEkhF5IgWHcUgrRAoQDAZAAlMAEtohkJ6yNJjOsjqPkjVSg7ny49DJaxqVqgyP+4f23xwsD/inQShH7OgOedn9D7/jvoxdvrxdFf3ghCvYHw+lGxn6T3htIXIbsCDjohtg4UoSeQEFutLJUQsjcCACJqiiFLUAshQW2BEJIIIRoNo1h2HZIQIvOR1J1tWdaoPM8PIeB1Ytu/qGH1+wlTFqhz132aW4bGOC90hrf6xdWa4zn6y+vUnqt435dbBL3M8v9iHpDksxec9O0ElYWoIEAhggiaR1igAJDkoQlEQSiVcJgAS0QCAkjIoRwxIU8QzgUZuM8Ncy9ZT/Km9Gl92dRN28veguwtBCtDECggALo/2h3XXozGHf0sM5oyaqi7Mox53JtIFHsEOG1QoYiy7amRBQ94JbR3cLAAoBgkLQWSBISwBGxRMSFYgiiFiMpMCwJTXCZz260sUQCrY5sMsVzUsJAl/6v+vD6zQHij5oVyRIiwE8vJZ0eP84drfLM2bYvre31EgTZ006u2e7+DF3PtIgaBWu9kN6QrJNdkbKMARoic5AiIYSBFgYhMUlEVAbABgQBKjHAEsbEKIBizdJvoAJkWQPoSA1LiD2uUXy5ijxO/7N7aTUBA0SahWgFfrfzLsqgOrz7wu3l/fvOWd+vZpfbzmWl4myZls3GRzBEJYOtsCJWLnFk9XRmF7qbYNk5DS4JtARrAVFGwYcHocZRdMkKhdJSyOayZln7XCRw0IRAKLZgZCRGTCwN16cTHB/e88Z7eHKmfPbzzwB+A/h16F6F9jEudwcZFMBT/fBe8pl/u23//gaNqSdS4PRs4U5tSTskjqYMtELtJCka9CW9C6yeJGqoSM2ivKOSBBTAZpwutSYUBiCLWCDsQBGz9C1MkEAcoopg7CYQqFSKHy0ip5W9Rq9z9dWTT/vLyXl359uuA/QAv8/fD9peLMDLlEHc8EKf4X/+2GSiuCllnbLds1roWJCAvdkXrI1lGfEIethoh2tCQReRI770o970HGraYGzCRlU2gJYSEkpKS6estCgoXCBzIJhaSs+OzEqJWERmCqC0wCjqFM5oVIMuajypW21N0b3bdcVlIy/5APAPwMbzbQHDaUkZO9L8+M+CDFqCt647cu1y7hx3Pty/Nxf4mMpUgcCMjBQN1YOuUAMuCZKvO9yr0Ka4UIROcfx4PNbugmRNuCB3MrgDEuIkVEQrFB9fdH0oC97JEEwygwT6SBUKA3rINHpvSKDacG+YFbNyEmUTPlGwTUUL9VqxdqydOu5/Ils9kT+rrwJTAIB3LKe2Y2nXfe4cXteHqACd+NmAAfvL35tmN8ffmpyWSUKKW/KkRUxBCsLSAFdK2ewVZG8qg2nVjxOTjYGAGuEpD7fjdSlacWmGxUTEDCQLmzpEqcbAYQ76CZexXEI4Vm2zAyjsHdEeKWSJW1BIxoKRpAXAovbQ6GoS3kEf+6Xn3Gxn8e7z0Ju23XLLEzcdh2NtMA7QAgAATmwDQYIBfQMAEadt6Hv4xe/uyqC69sH0hvpYb+HS219dzvXupw0/VSaEGcE9JdBWIUm2LKCpELOmApAMBiY0wzC+x+6PC0+OyCGjBIIiZrBWSqIOq2ZoFbzRT8kLfkxXstESV2nLMBNTJOIezIEGqKXtsLZuKwRwRSyhU+gmPBO4KwcOV+NBu/04tWCYqLBufmao2nrNJacYL4LfpegBaxmOvXHef6AgyT7NJ1IQAIOYvQKYmj9v3/1265g1Xzh7JLmJFRGoUcBsek/eiAgLVgYAhsEJKRJBilgUkxZFlIKziSdYMphAChCLQGxISXKS1IUEkyN5pKKfjMkupqKbuAEkG0WiQaKgYQUd0hDbhRr+EMQS2biKL2vXxoTN0yQcu6xtIK05SoApGpMWlRaPx/D+h3Lh0ztvBgaciN+bX17FW85clPZh5zwq3DmXaWFLUi65rXca/piPQffw4dBlXs83HDWvxfW6xkukiodNEAInWVaGiOA2AywkQAZkzaC2OtJsqRYSqHEXXLKFNGqNkjyTBIXDYlqsWwSTT22t9y1zIyhWl6mEtknSZDaoyypd51CBSapNj6INSERC1XksxoAapGW5hgBWIQ+4+zkdMnSQrskUVikOwmrSCVkOHHrl9rO4fvz7ftBWiAR54f8ceP/4zI4ontD1mVHjUijUTvJs9fn/7i767Di1RtK15npyjMKqARERmHUxQDEKSBuxNZeg9DYITmEryhVKmd6E1Pr5RCs60aZyzjzlJsPQaqkKjLFMbGaNFUcN3IfTjCe/hzLtPM1n3N+ZPa8HTlFJqpDoa0Ixz+0+fFbHrB5+HyWeStvMiJUJ6haxMpOUvishdThrxESOqjCYBPA/QAHaR4iWrwVas76ySXU+XntR21hbd4Oq4C24Ler9w3HfU543XrfaGT1z7bgKekhuRGYUlhAD2ThSekBADgECqO4EGZsuN1sHotmixOHJ17TOsrJe6vjkpmwSUyR0KpM5kifaUg/uEM9iOJvu8MQa9+ncSmQdkijWrCM9lCE3C53h6tpU7+EIdo1RQzjU3qgBNTzRLYneWqERKZ/v/78ERIA/yUVFf9z6nWtQbhp4L13kTutUXp55vpSXbyi+rxFe4mwO3dhbcutAye5chQlRoiXzsULQJLlCkxHFaUW4wnQnlCtpc0sk2EDteeQ9/ZTi4jVkKsuoNQfFLK9vjZc76Oui6NsyeD8q3Jt3eT0tHyk/p4PNB6HcWi3bmH2pG+5pFZ87V3RunoVuYi/DM6H5zu6YRYakSUSwSxtCihgyc7GuHw//ABRmtBBtA2O3z04PvnDhP+mPfNzMMrOUZXNci9bpAy03jjmausytGbTe7HZkNqimRYjUNHivDLCCOiSsdJoDdMQHlE7nZKRgw7w4wwMcbEVyRhZtKgmdqkZWZcJUMoljAlvudPAaxcwoxWOlc4ZMNDI1sCqjSAKDEjOjwFou6XiMG+Gm9505KfXMGWZ1qpAktsEWkg5VxvPM95+6YukAiMsCvIIECojf779c3tmsXfquai9wu4q20v0b4p3MsqEXpU/QHvyOdO2ScJzDnLKwWfWsYWSL3Y5HOF43OUGW4Sd9yrWcgTOjN3KAtp6cwc+pF9xv7tpBVpWTApFxJgrgHJixxI/OS3iEBZ/F8D0rhzjtwHd1L70feT6R4lghgseZoWAXvN2IIVePHSzfx29STp2cZDhKejFRd5wHUxdKKcG0gKuwT7GnlH4qHZ9e2S+6kUQLFIAgfvnvDQPqq8NHu752Wn5czVdHleUYD7NZt4GUauizQHB4OFHHkO47aaZphDpwg8QMh5pk4BI/cFwGEBSxRTUfuh4hOBOZgpJaDhx/FSwsPfFQaM0YzCqJE01zCqRmBfiAwltuztR9uqm7GAdmmQmzkx5rdq6RAlvGKrZ5mER+YqznMGCDDbSwzC3dKJnVkCMJAmQP/DjhatrxrHnfyQrt16arv4LADuauZS7dXHVO9eSd2stx57zAKEIfr0/j8H71YE7Wx2JzWjDQpGl057oFD7O6kTLT0N61bjAKS/il1Ctqy4UO1ixaW2SIjfbG7fxx3GPvo6+jP9Ge+Wq9JjyKvs7JqfvQ+2X3GXv4Pvl87HXyPv4q9xl9cI+9XlXx2ryH77H9ICMRDkNdMfdkHp0rr0+/h+7yRu+Pfo+uh3PEoWRTY+odnGRBdmhNCEFKcRNluUv3YrjteI6kr/nZmBlyxD5HmSBPbgczz9tZme88AoGAaXd0zxHf/fV054tNVc3gVR54dqSnLB4dO+/VFRvCJZGCEciYsatTGA+Ru/VJgiSnbhtSDAd4pSgJhClWRja2xVkcAWbIQyYMrGhO4rDmTFvTQOBe7LBehJxpa8TTw+7kmKS5H+mWwKA63LMcEhinOD80Q73WykCdz9VX0Xo8vOIuGlsMAsqBeOLdtR68Uy5IJVpoz2FqaxesxgV/PCOVonZQB4aWUgP1PeAJ93kuKAIJoP7hUzc/xcefLbMVFRl5eF2eH6e6u6w1E5e0oYsZZin5pdz+eOJGOkssEEBbO0Jtj5tMwi5JYyiM7suAglJrIFrFvJMEPHlm9u6JHSumtibJjeziWJHYoNybjhjcbFRIC6GdcQZurQ8q70b3AqOG4FjHzmGk+BSt0sXEDRAYWCg9EIEpHAlJ1sRbwgMVuIWzgTrEuIu1DTrKZNFcBtcetJW1QCs70jzNO0gA9Q8f/tVG3X4788fXdcyjNxYpN3Qv1ifN6ZKGuiU21JJk/E6shc+lPVk9ir7DMroEEjKOauxnhkc/Bpsh9IWMgDHG+dy5AvUE77zN1lObJVDQelGO93ZaiUzAREvu0m1rohzNVq8rM9pdTkMzY8xaTU/rMopJCqNg7q5/mo2bDGmgHQIhKRLqJBYDEBph0t6gjXgTApApq3bfaK+kMR2ryTxOw+KR2OhXn4fPT+ar6mEs0U/lvAIB2pf+5/+f+/Sfj4esL88s26SblTRD3yVvizrhljzRzy4I3MVlsUl9FCb17610MbqWbkj6cL/3CtpM6J1QQmiojhleX+WPbr6/5bXYuS85BNoUKWqycusaFEywwxOKra8CbGvjDNbFECepKFbcZacYdsgeG7oAkznqOFbS5MtqNQEFUdeDJghFCoGQTFNyEmcTpEBUYm2MiGbPgisWt2yVBD27NOxUz/Rh735b3RMYcSov8UF8y5vY4N5//fOT23yybc7Im5MvO7WwscADZkozyWYDHSOmQVtaIY9VvNjlArVMxwmXPdapdDehmbh6MnbMFLFarYVM74lfn3LenCLQluzww6tQERe77ulLF7rmUMHQ2z2mhYuYJpQ8MDwznOwFNScrnJylOj2NFop6Vt7SPSJO4o2MCDCQEPak2VIQiCtNWklL79AQvJhEfEhWyH2j1BmTXewZgoV8pHaW1Vb8dHct4iIhKqN1+FqAx5/48FJ3Pn5d/EVzf3zXB31SknRdyr5SCskS4sHciykDVwhZ69Unnb7dGa9TqwQNLwB4GRqjQCikABEatYqUwkViFKACtQKhBHBBxRAgoAxggltUVsYgquBmwcRAg0JMQIAIICQRkphCQAxIggIkAkgYYUkgls3//O9/aDraIPOSgnQNFRaQC1AhXZiOo/HlPFkVErWS0LI1ahi+P9e9vBUSg1eh4z5PjAvRPXTxOJTLBrlDEZJMyDEGwWOTuyzjBkvaYZ1ebJgvAfCOEUGqJd5SX/Yixds8kKfCA37gWCHdBrlubswFWMbNI+tekI3dafUnZ5YASuEqDuCcu4VklaKKM2FC9kIfiUggriIRUgjQA5aFZWiJrJDiBcLeEaAIAJCWFSIhCQFCZ2CERulUKEgqgWnLejYcXBx9lsQIfzm7DCwtZWefZhBv/+X9rbrrh7eih7XZtbqKDJHDGuYUj4TF03iKJjFWKR4zUJICgywAyU6AKu7/G6RwDUhAAWK9UlbUySKmopSGSIGNwgQErsGmeANUWWQRJ9cFk579D5axM6ks+f0WAfxFrSf0TpTDWNJAA4qwIUKxcLU3GHEaaQ4nKgEAgMoLrCCQ5G3xf88HZ0rcvt4jF2RBAnoCRVw76s41kAdbwAZsBK73Cap18iMAu5sFKGF7LwaomU+e3s86h/AUtJhAkiTJgTuKZI98gQtgTt4QYeGUUkgAHgl/IfvH2L/k6B/n0b/lCl4FoCZUgAXjiGOBLXlhJpFLg7YUrNYk07qZsZ2AUok6LIiphqFscyY6qlsgBJKQhCxaFgpFqvAfR/jXbv4pMqkAIHKCipR1fGast0+TKhCCohInZdDSua5wIMkmjdcTTMarPy1/SK2X/1YEnW3SSZ4vIkIzQYEgFrNYACA8u6f1CoLj38XLfIchp6xBASjgn3e89slrrz1/2r+OK//1fEu+mcMYbloNXaSta+NzRSM1eDmTh5FDb5mVY2g4xUCSIfAV1KjYiTFyykWd5jnls2+d5VUHE1iWbN6pNASEuv9+mfz79eD/mAR4sVrSqhBA29AKqqIWT7FsTJ1ooniEXKmp0n4Ur983Tnwa6SdQymg+PSfgC1FvkiGjaKXEJFUAJbAkIdsh+oSaULySrgZEuSYUAAEAIgSSbb1W/cM1fhTpM/Tch31p3jQasNqWM+rcRpCoJzlfx76FRlNiNEzeM1hlyc5oU8sEmBXW99ja5pDNN1rR9RvrdWPoYJRooWlrW5HMXbZ9a7sPJAMCcNp0qHnwbPQ6O0xwkBVYZgqMiYJKwmIJAvLwaV6WF17/52dtt90kYkEliDSD6t713u23ojhg54WmUimTrRikEpSQ9Jp0Y6ojGI3eG5yCOHINQiBABSAsoITQHlb1XGiV+v/PbW10juoLT/wpz4QKjKSZxuiHmAiNxXnOsUhQTAct2oitWo2TtBx5EKPunAU3enM+dW6NhKXGLIlj5AYD1DfKJgCh8mK1CEXqVX6Ad5mNgPABqSnqRE0CQSGEpLuclFbrmnLXP7M8GZT4O1/lkhoflEc/uXaza8uhe9dOJzQKKgGb1KIIyywSSOJ0ApfeCmFwq5ZUOPK2HeDBJz9kul8DCAkAACJBSGshO3D/8coPXhUYnwx/VCcR60JRsAcpulsZNBYjM9ksM2KVT5cj3oUrxIOUJQoVOiaobBKBCx4TS6nQp8zHjS/61h932mcqguAnSorWBMViBAGRCSIrJ4BkaTEXCsPiFU86GuePRxsBu1cDFze3FGMk/Y5a/pR/d77HeNUzQ7TYgqkSAoAiCEgwu7GR6WVOreScbJAAABABwL1Pftjv/Olf6LBralDhpOjud//zj5fPP9B80oqwMm66uk1S3w70i88mETEoCYw0U5XGVPFgNtWsUHPFJiKN9h+j365Wai2nZUyph3Uli0JuIFc++9t/AiQnQ+ZA+qsAEQANgIjNsLwwH11MY60GZeVpQgKBgU2FX9uERZOFL7ee/wrQOuxWIREMDGLSm6iO2o0pEFvO52SsSUgCQKUKphKkxATSxmZrkCbDIgAAFAFYzVMX//ch5/sRAgAgb1tD8m//9fe/+99/2j//iPm0NNygVURE/dj882JkR1uImk6xhHOtyERtdJiMxi4LvNlhtJqwLcxaqOMwaQeZ2SJCwrqvfOK3/gRIIuW6RkJ4BP5kB8DzZ1EymtlCZBHUgY4UaoBBQkGjKrwhYBJKqvjcsYl+AbT/fbOL+1pAYPp6zv1z9Wao5PpCrM7dmom6S7ZB0iNJAop7ygbTrPoZhKpx77vo6VT91MfvtscfcC4MAACwMOOH9WpYrdq63tZmcYvzNfPVJYfv+DUDksqImIiJNDrR0VKM9WgGQMUg9s0aQlnfgUhttc39Rht9wHufyoGQ5NmOf/w3lDcv1fLENYOIJAE9zGtRlYShHoPZNImwkChlBqNuGV9yBy1Lo95Uh7dMArD9zCV1PvAgZebh/QbVRZifxFMCUxtJHIhEjAtTNdbJucknWLDADnKflGre++PP9bXKlD0NQEKBj2G6uX90Z9ny1+xd4zXyKvbEe2AR5izjmdUSDU2So0701kBzZ5lsUWkEqXr71JS06G2znRb7Ou1v6c//E9Ox57lPr+euuy2EQJrAbHxtqBOluA2UqoYwAgr8dFSrlUsblTaupDnqC+i6WcVgB4DxcVh1aUmb0PUmlBbKQikUU+OeCOZcoqi/8CEqMHvmVah6QqHX/vDrz/RpVAxq6AIACgBrvbX7nF3bZR+88bRk9mjFBNVql0zKjmM6NquUdFYSckAjBzjRnTZXWVbTtRxnoBSdZbyWu1cr/e5/N/N9b61hR7DCSUaVgZMoRqtYgkaqg6sIKTQQhYAA2x15+K4XrTw4GlDitu0RwFZZkA0N7oLtzS3OQkidrFMhW64Drc7KPAXf0/10D7HJAwMBAARI2MeOP/1pnbcD3/o78gGoAQCQ3Xnf2711O+4d99DuGOeqBqec+IDULRolUNKZ2GnEDnUJ7kSGy2DWKqLjKgEsWBncBV7YH+UP/utgvp4aatXoKA0pAVAAAACgvQCbACRDTWhZpwQKsclakEUcvHTYDn7YPK69OFf8HZ58nFsflC5yiZBFs7DahbAqlntosiqZkSNp1mZSYUBc2Ma7ujNPa8Uhi26xT6FEjcv6E/a7zH8W0vUV9KIXbsx3jw/fCFmhQ0tnWNixawQbVG0CEsZWUUUMOI9R1ddIOQSBHKZgxcn0aghU/NU/n3p27I0qAQbfOvZe18PJ5HmkM2ySNEEiwKyCSwLzoLWYAkUBi07QQQS94OC4ciQAKYV87yYDHWfV41LkDFJU7108mz0HFQhQb4RNlSx7a9lhJ22zjVaGhxQAoAC85e/p84fBWx00+whKgQVKAACgb9WXmeP8koNJl3bgpNDULIk6alKteKJRzkHZZpWZnTRqITDYhqLsWvc/1XZV85eLLu1c8iGZBVPq46e1h6euvSkiz2hXGwSluAZm8JvovehhdgVlIGbSM3QUUC2UTiIi5NquhcVaUISoAJgEYv/yXd0Dpb3j5qrNQJOZol3ykYxQHY4yYETpGXWiYC0jOCXmKfRyy2S8X39++2Cr2Srk2W265QLQ00NbEf3/v737DeON0RCjDlZu6DipcQpKIxpSFKI1VGYZUHZjUClAujE/AADsTzC0y19o2OpYpLbEsOigP5CSrskSRRqCEPCgBEzJMiCRQi2QhOAACa5ZbHfJ1VY0ctz/sb8vbAjoWkwFxEiANMbrN1qTN6NVesUSJfo45NmtKGuXzkgSkUirVrZ5GLnJ81Wv0/cKnqu1GD98/Fk+3id41y2ffZSptwLq5UOkxz3uf7k+vtKvbR9woRMHiWwRIJmkoA2cwyA000ZESA+FV5SwSsW+JmFki2978eqmmqT5zJob0g3WipBrbyAOLAP1bOrEgDotSWDgGRDBMtxFdR8rAhpTKvIs3ehVboTtD2iZUWGykk2XvMHhgu8el3CMxuC1k2y9QqM0pFMwbnMKxRqbhlfBy1vqueC6Vju/fjyWLFPE5e3G+339ejc20nMV4NLl/VP8efuxGb66R7UtqRbZxA4R7JzMShldqiuYIMZyZuIEvBDwdPlgOx+Jq6lOl9aaDE+P9DKRnf5FFSUwmkpNUoNiZKGAYmITmZEoyavYdm+DV/dvj10DF7ArNkCq/32P8rlNkG97uuB/3VWFdVJQdsHzmkxYExJp3S/JtJfcd+XAs1R6zgQm5KvvpXfY6a0PnbHer2u7O84v5BBLeG4kfizm25OG2MZaZm3yHm0elDFU6lAVApdFo+EapCDUo4AX2C50JP3Tjk/xAEVXXGdD4QAvr6tFzN5/f+f3LMYRQCBKBcImgLWVLo0ZaWNt3hT1JFX8G1AdUECHMcBrnekSzq0qqky+2xZBLkmonYjhRjAgJgzjHluvrU/9bO03y32AqKeTYq09z2/f7sUdppxqPJRGx/5l3Dorz6un9c23HyCPrZZTD37nzyPbXLOK1+FjPuoswKeTlkiC0wGrXeAFWJMiSE/yqP5ggIohKEZZwXOBmte83/vzHK+/+dgIGyCBCMk1uEEJ6pTYBANJ3OSiic7TxT7gy2nY7XbhINRY3WIHDeschoB8ehi+X2tBVhiw3JYPSW1zL11PGLoKA5myCsFzIZTY1rd+3Vjo0NJh1cbkdb876s76DQA9b6NQrr19CjPm+9E6tkWmgZ3SUIbvsWTtbv+B0s9oNZn3S+kMUL4eeYQFEhdWgF/kXL22rbporpXbc0ZgRJquG46Gj2asISQcgEIqoEQAmras9mbpzDqz3enr5VfrI2uBKBiBgQHg60TtCe3aUwpTS8ASOZvOoaXQCLLL1Q12l0G1TqyLudIWZ/rs/ujsS6tpLdpwfv343B/W+sLXyg73KJWGSA/u8bqG0svJCnUt4nC44kQnHKMpCwCuuGo/jKbtRn+1DYHXEILmczKhlc6mivKH87H1taeLohCX3eesYLO0l2zwJR/wY4IqEMIAcJIneWD7TnTgzFIWy8KDvmmxjmfsf/ZsZyWJokW26A4+l6W1+Ok/W/XozVFRAqUGKmAlkpFE09qfWJvl8wwve4xnFfR62NvxpdZNhrCEe2QjO9ZdCJX6Ky53CSUiAAAoWmRPzxcXGY1FyKwgk1a7n6/9qh/sgjIK4BWn5hUikaL1JBh6Qx8aSECi8JyBdfAQQFqDpxwLvZIHRRJIBBQJChskcUwG2U7Rbi7mlXV9FDCHr/MMSAXQi+7OKSTruW+uHP4Z0A1yHfRoaJntJVMqFviWoR/RqUM35pbTxfVS7q5f9+36Othl00Cbax+t40ZuToDDZ+tUIgegzNMnZ29//6y//G/jS2V14Hv8ronWAKsBxe5LstYLgAAABgSSVqcKYwYnrzuD8cGcSDCiXGGhl2QXpEo879ITPaTzEdeMAEnCBSlFsEO8Lc0dmh2Nhb1M8axHmZqvKxBXX0dB5MX6cDkNyZdxPDYMKbfNyDCvEDGxTHQ1QRDlHh3NoFWbPjybzKoXkl3HbvnFZMk6BCRboY3vo+26oJHamZYxcTy+v1fBAACo7sfzv+f9P359uHzynR+sfeqTsn1QLOgbAFAAFbq5/wbnz0cmFNpZM7OzR2PW4GSrCel6kRqeC2WbdikjcERUjrZGCQu1hJFUPIBBLggQcxdpBZQhVNP+/+gEYiYZmxGAtHW6lLA46+Y4cJQTZoIjtYvHApGU8izSMjTrMDNHBDyzcBs/hG+xLkSQqtooQV/Fo+uxTde6HvvLrz/++3//w4990bmrOQCEQALAmOY7q4QEQ/wAX1EK9UHkEngBz9Z9eDDTGACASIAQEQh/9S/DL/3B3qM3L3G2bjFrialVn+4yL6nKy+xHuDgEz2AEz0Mf/Ot7Pt7OS2rPgQ9ByVOw2VB32WY1oSxadVoEc0YtdU+1+nsQAGi23JHWet5OPSfZzVfmFhnL973psKMlkK0SYpPCttDwECdZRmWcIRUAAAY0bRvn6/F4NzKUJREF7PTxNRfkyLpcrtfIuDwDABQAABIAVjEAyIY7MBAPpsYKZCA3+Uc3zDUAhPppAQGEZWF+PdncseEz2qGGiCgo1KlzKNu6ibcYKJhe2j1OhH5oob1+0+uoCSAjcZNLqoKSRCMkgLYcplaGbe9XuqIvpJqmAwOCJ9qT9dQrzbXV7U8472uEUkqls4WIqQMBBzQV9UTBqk5ZgyTY04kO7YtcX2Pb30mQUee+cHsz/mrEXlJ8djlH9gVADAAghFAhAQAAQIJlK02S3yG/SNxtnS5/S24AFQCgGxEAAAACIlRQX83WY4XY0FzuFutmCg0lkTALAWUAQLTNmzrKt+wH89E406HEAbA/MOu9QzZfiTodC3o+6uYdkK3CIapVi7p+OqQmr1aVMWdr48ijxWFdMW/ivjdjBHrQItSJtbLywSVOrqwzKQ0AyoBpPx5djm/bz6499wdOZIwV3w+fX/NjNOzMZVXLSzlK2HUgKACeVe0hbnfm241d31lrrT2jAeRAIAEUgBAADGhdqqUVBJfcd+1WnatUJ0t6WK1JA6gBAFkCPtv5jXiyH8IomwmmmcxWEotJiFJq0Uu2mqj3ooi8aqSoM7j5sTsoswdtrvwlCbXUhsIW6GjBx2y6D1f7wSZln2AdUqzcbpKqUFCjEx97mACAALBqu/gNb2R6BGkpHtkP7uPDn+KTzvmk+Xxp0QH8wzn8zRSAAAAAQABo7Lz/s7/A7ad3WX/uO7w//g6AAKAEPOY//+7fBQFAYAAAANzFggRFu0NlYlvjIVKyo3y2d583BRUdgu+7vN6C7MB1mNgtY0yJ9FtxoVoCBPcFD7id/e6i2us+h1O0DSBGngJiAKLxZyIc2+AjiWVEMGn/2q6WmUIYI0VGCWKHuNTUYfdGThc22KdTbe8/2F/ELNHl2AomS7WHXk6X0iCaCxCeMv2Sv6xHfiI7/wYA3tYgAxjHCz7nq37VN33bnwOIYAAAtD5//cc//9LvyfHNCQAEAACIAGTX9vdkFqBmJzFZIjVKOBZeu877+aSt3rbO5fEex5vA2ooply95au05xW03dQpDoAP3jdQHPmXp1iqCvQDtnYnZ5KR7yppCBRAK7mH/kq52sIwFDQJjom7hNOaGE51H+hxOT5oZQ+tbuuSsk0eaQ6df7enmbAl4eRdVJarU7cK/9d5Pr+5fhevGBggSAMUKzzsQSXq/5dvF+wPaL7A2VnayMFcv0PSGQeQyUkxgE6Wz+5lfAGABoMw2r2B9uWcaqfUkkO7nOnusA9QdGnvihyBwQBRqIQS/apGuANjBdLs/IgJhYjy1Ukt0hK670m5Y6mi5p20kVxmNkJj6QmuysgO2SJl9TdcTD//q+vi6Hfd4OHPbzCStXLN9DT8+1/0XAPXMGGNBp887fP7nPP6iMn9O+Yex87N1BRsASE2QgkQBIUgpFQsAOpvMcZ5tftR6QN7tKAsdRbqc7DIpmGWSFDCMbusqOESKlnnKo8zajv9f+8fI6xX3S3LZqeU4znG+Bm/TQmYRJXAEoD2TMq+ZRGZdLCpkCgA3a1ruShIgsTlTWgM0LQgapuSGIwiaAIEhbsxAI5SFPXhVl/DSyqisr9PdzZrbRNoq476idV+KEOC1//6o3//9f2EjdDJSGSQrFXoctC+9+2u+1md9x3fo54kXntqj1//rn/7udz15/QEyLzDDcd/+/5Hb1TzAS7VUsiq9gGQBRcgNk8wSj8xgBCnlGrBMc67m8Bq7S1IjJyta7T2LIXf7gYhUCqvxDEWbRYMLzoYYXLdIc+iU2YBYomk60gCottEjZbEto58l6s6So2xoyYbCblhh57acti4aEYnFtVvRk0t9HcqRlgYW5NpqbxPPNxgOQOvjl//gX7ht5cCBIgnJAiKLw/z2zurpJd77LV/uE77ybc6fnpA5CTDfrz19/V7/939/596H/4A0cB3MncjgmuzjS8S9juu8BglSSAypwqFQBQasAqEIJ41HjQbJ59bEdQZtoUVdgx0hEvq1c7geqQdnE0zcG2hTeubHAeVARShVPJRqHKB9gCngBMz9hT6mqBVtdYgqUeOK5gNb2lXj4JBOMbjRrG2zR2HGo0TEUnpSADJj0cyyD9fFLs/fXhNJ71sJ5kOQRISCNIlJniWwcONmF7dhz0JPJ86fLgxPJ9BDu16il89ZLqvhfKoPIpgFdhmwla7qNcewP4xeHwCE674hAL0IJ6qwLlEVb/RBB4pxjdCS9BRILrhW0RvrMgm0pO1HtcvTwnEGEKhXnCF6qG1Or0p6+bh5U8d9/ByAKxNTAAF4io6jlPZZAy3E6M7rkU/vl0CsHeEgawApMXccC/psnWFrls0R7hMqwmAs+zXeadNXAc8LFQvo+rhoa1ISlIIF4sZi3PNQEjZBO6TKsqRSmE0+DTkYFHoHXAAlAz1okq2SMWJa8Zuz61P20r4ASLnm23plFOx3SlsNXGgggAYnnaXMGGbW/akedJRlyUzxw65oLgf6fai3mQEhOSEwGBiFrDJpkZCZYAoAfU9vAsDsWC/nJgRzF13EwSrq0vo0edc400YaashV1sCbNW5i1C2mmBKxLyeK+DT3eQwoF+cKC0AAAAKQJ/NyopYoyaUkmMyEK5ci5NuJ3HIYEGNBxoVcsj6nlBLIGtQprdCpuLFIzihR38rKf0M5tp8wYusATnbooHTbY/NxixQ2QU4BCOTEe5/K611QYKl2SHt1rer1oN12+kNo29gdD9uWkyQdgC5YKAtka5Vi8Qb5qvXE3QIZeBp2LoFSK+FfOkuyZWhoxp6Ahj1RF6GZGhcpSaPzm6Wna3EKFszWentS1FF5TtY6htm/vdgDTsEya/EJk1SJYo4AdASV5O7moFiqEZIcbADORYKXD2OVw1mkEBIVmjAIQoEbye9OWklRDzJFVwA4EV/zHb9uHOf0uEUyCAQy5UQ7OOXUcWARwOIrBcm72VYatqNxdLoddBk8YDciI4KRJHTD8C2jdxcwEs/8N/HOJIA3cGewUZhhXlr3cUFU4NlUTWvZzu44Q3MX8+sjZ37RFoLEUi/tLmZRmoejbBsvHy9Ax0dmHGQjeQphj5jQxaphEpbsV6jGckhrbCy+IQcj6EHasA1wKTCKoEggo0qrwnL0p7S0AmfyXei9RBsAABAAgO3T63zFd/+2cV5oLOAgKRGcNN4eI3KKEpslRYaGnZ2BBxyVFIsLbnOLVgkKYqSDomN53YarskTOszMBgBnaCMAwzvx7HOvWqRKSdbl/wlU+TVa6eUCT5lW2HY5Zal+mg3OdGx2wxVD3hUCE5Ajvk/tqJ57zeM2sq9ifEeQIVKqQMJM0ISHS4YgdW6ZIb/SjaJAk25R+FpXwpaRCFRBkSZEELBz5w3WqVweDiQJLXwfXNCPDzac3+oLv+m3hg7JmoXByCIWSciaDVg2BxRuOiEptSZErY9uzVF10iS6gsALA1SjSxUG6VkCRk9wWpFd0Aa5Akr0uzbmTjOEsw0k6DetepeYwY06v1qE9QMgAgAAAUCULJkzNfS1vHn7imd/69f/09D7YZtsVQkWRRSAAjUoeHcuIyKbrUXHqQl0BXm3Irzh1lDXtamxgWQxa0rVQcIAJOWN3u/Rl3/szPuPrv1tkIAcAAIBlNNKJ99X7WXzhduYnQMXkUox6GGyySAK3AW2GqNAyLdAAAsJUAf2Jyvtqm3EZr1EADAB/itrSXcURIpN1P+/WeszmPY/PnY3V84drc61qP5FQ1ypOmLbZ5wAcACAAAFBkWZ/Xua9u7bi/9sv/od42NMMU0YRQAQIKShorYqtlO+IZt8a87/QK514tyIhEqqBD3gmdbVdRWLIDh/pMustdR2jDcimCLMelL//en/XJX/3NIsM1We00q7szm8/ZHgIAAAhGO2znXPXkmmw5VQc4ls90YQs2iCGGSABxBNdZqbZaGS+nzwJSMNA0EQCkijmELFRZ48zUJ7LueWl0w464Sd27meZKXZWDrtrbmipz+uBkCo3jyhd80w8CXpA5fH7fvUGe5hESDMmx6gIQ8EDREGKQXBJ74l0cGwfDW6rspDB7t600mYl7oFnHqiJSa6xjLQE6ldiQIrGwrFtf8UM/5xO/6usgdk13JrxS+DKdAQEANcqWy9XXGdcUYgPLzgy+n/b8+vp44LNzJBrACiC0gVZdHrGLg1Z0Ae2A4ZgmIgZcuFqbpMNNV3NGzdNqfctAvTxFNdTjYHy3s70WQRE3c6rRbDVxhEIqAABkA3jfV36Nz//WnwED+xPsHfdH2ydvYaI0zIQBuIRBILHiiGm9Z6gsE8UP+iDFSRlibtcs425ftOPxUcV+TGGyh4gVAK4LgBzkDXYpy4HVLZDT7nTrS37g55wUAnAOviwHRE+B7FjzjWZz1z2FOictXr88X7+Id+fmfsg1Cx+hG+Q+lpW7miyRXffbHj03qi1IRkjtQ1y0cGxQFcDVgMraaNpIVMIgJNaMhG2NLAGkhwVBAACAAKwuLwEZCAAA8mPzzb7XWl5wQ5C90AseY6EKKKcoXYsAHBflsRqVzrXf1/5NT0WuHM2cDmvUp7llchDbSc4dS2Ce9y2iMW3IW+JIu4Ed/LRBz/oDAFC5Jj7QAABAwFTMFY1NjloxlbyzWe7n0WdzLG5wpExcaiRX3qbCiuJeMqxACX5fv55aIBCEaYDbvk7AeXbfCQJUUZ06B6sbtLvZ5ksqdjqO5SidFD3hgI6Ig2tKSAEAIKAUfGntOobvSaFDXFIwESJCghlJ7PQ18RnqIqb5OQlmF8Of8/44+0cz4REcdchxzrg7Ou00H5RRWKq44KSJd5hKQYLSG0dJCjgiJAlCBgABAIBiAD9RlhmRKRw0Nxangq6154tnHn8RrFcmargrmUA1Yjy6err/uFkhM9Y/gBL7Ohe1/MJBZqqqgSyAC0vhcG5Sp+YQJWa7SSeJbV/H0R0RTs7wkAAAaOe+N7776/Br/V5+ggvaFoRBwxqSgRuOev4csWzpeP1lqZyuVL5/5tdfL7beP8n7J+u8ae9Mu9rH66d8/7+f2f0T44jpfsG6f7L7/3tlZJUJuEUCNSrwgGRzWZEYCZSTQAAAwsghkr1zzscKReBcn904xzKsgTqJ9sHba1+1Or40+vnbeTDhpl/73rB0T/CzfAwQi2NG+rf+a64vruiigHa4QscO1wPdbVOZHOaOOTA7LCHmHYdZ72jBjBdI/fLXl3/9V3/3n3/923/zz//Sv/7r+5//eQIIQi6GNIEBEJckCyoJOYRCQgUACBIrdCtwEiYhAjG7ghNbQgQAJFaAgQkBkgSBKRkA8tUZvsz4GuP9NEAIO6U+qgBaPckR+nj/sr9OLXMZyPeXh58VPT+o5OH0gzvbu9cC/BcAAADcCL4GFE5/Ts45khYCaGlBlzQw7C97qY6azGTU8yoY60Uon0kIAeCdI8JwIQQ32oBHuqM4VjpcWW5W8Rt1tal99Seq+j9HG68dD28BOG9XTRcZaW5tHta5b6kcIRVfGnUTMoQooUSIrG5zuXPr+IymyYojJ8mUUERl0tn66lfR4EUUF93/jjLCf5oDAED4XwEj5j8BSgBvsEURtoTl7LR6+noHL5ifaf/3iu6bv+aFrJQRvWXvuaDDE86UDgIUYFDK5n5dVUgKdSEClnisk3W1SpkhhVBmduCMjWoCx0ElBUMwBMOHqC2qjAC8pgWA1zMRANgLKOh/dbpgCIbSVxaBjeUYpGQUDFjjfk9VztmfP5yMvvezXvNPv85nrI/Bg4mPe8036+xnJjMIeU50SJToEJ9DLREkIkJZ5QTppDiWyGN9oxtnSOGd4wiX3/uLb+NdkkASr2ZqE5eb5xa3cXec+fFXfskP7AsAxs6lAcTVwIBRyevyrPB0vhBJoRvpBPMelJq7eWPaQKhJHVsND1f3xqf+xv9+7C84A5AOWYTmomCdRBCwBVgLDbk3S4xccxgFAAgTuLYyI3epqjMKIhajVC4BFFCWITDkaSBQGUawTr2kQUnptpZKSgAoZqVcQSFQcsMlyux//+f3QOZABC7rk+3xsYv4+offf8XtFSf+zod/9SPAG3/2VyOxuDKX2gF7AEzS9gaoQSWgWN/JObg1h96LuQ6I3teLnJ65r7FSqNzNa///57gXCxIqyVIBkNAafc2ardCaXYDJEc9r2KowcaUZCQYlJkevuRBpSxvWF8akN4vK2Lt3YvUBrGor+gC3UmQHFaxGiU1KsA1ieC0zbZtBAZ3o5UYvhApL1uMMnUI0MKw8r+1w7dVxGHz8F54dCwAA/VECxubTf0IKoM4XYG6iHcVaWh0srGQM6WEYxlGgO973fnz8zA+qjzmWGVYpDiEwAhUu4VUaski7XoUTLFLVJCfHpnze2iiYlELDLke3TdwHmL52nLLLj9ovVMuy9P+nT9rFQYd1q/N93QvTZiIrf8QyoN7OJ3qjq7tjNRCkxmMiqAPsImFREEf4IWGk7FAq6XXQl1A67Y8pX+roLr5kfQfw9r89fX4w8x8NMPwwO0b0zZsNgHS2BYQCCQCBFITQBaIC7eeXlsb6GExxD2gSSzCsgQkCWqEJmmEhh8owacNnAaIDvRnR89NrSMhUGHZZfhxvMGtYKHvvxGV92ChxCXo69wgLGuwEqNgE+CTu7FsN3FE6P6rOCpWpEkSobFUefbYQaEUKRLOpA7VX0imMJOoDjLr80rOvPucrX3XZ5u1nv/gq/Vg85nL44fZLOIEAlZQekWYOMUdwxCxSFwUrJ77AXm2WbTUOtPNi2hZogZAQljDlgFqBALRhhelOK0l6WIZpIzH9Ob4xdSYX2FIDoDiot6Zdh+qR/qqg3+WzehZ3QgYQoFSOAMRt2rgrEnTJSruNk1+dn7dlkdq65xlf4W7SqBKzsCW3VIlJ/Gq8UEDpgirTZ29uDQyfynmuvbjlLTAOeAHVsyiMQFSiWaC6xYUIWuAFGGZ0kTvXW6tGpQxuWqEd1kXqwHE2PubyxmQ64JU60S2Q6JlEE6liskzyFmAMk9bIrQklK3OPae+wxk7XrMuyvtvoZOaRUqBIzJk0EzplK5LG2nZMz5Bj60TfpcvVyUo0O4xCd5OWbPFIwWZLB0hG740P6VYxxEXIkDPjzQ8/eN0Lr13b7bXv7qrpWswLKJvF+VUG4fivhSPE2JqXqUTUOV3YGPAxCTVAFNEKa9v+vIruQjb2XhFvt3fhyNqkDYyHsUPiRHaxnQJGtexrpE3URS6FprNSTIWyyxs12flumHyUx9SQGkYpHE5mG4SgM3Wi0aKthwhKtRzx4OXKa+7NPW3HOzNc6E6ImbKklUgVd7HgIIlV5L2Jy/hC2Yd3o29+1p8FqHYksVjR4OZorJtzDkkWc0v0hLxDNhfKMNWeVKMgC+NYyVZaN5s9bZkJvKc9k8AJQBmFmt1d0rJCiq0RHfLcbTfutk/1sT7CCoSyhrL+zNu+5/KqO/jqOLSNmCOxcewJtBSCdWKiiZa+7+wS2yicPs0ZbNs9a3q7w44nSLKf6E5SjVxGKkrJU8J2nGXalZuN8Y//tJb68d/5y3sBIn0tJLXFBbD2wvxrx6Uzc3PVILmKKVQb0YpWMkElTBPVcTWhJJG1OxIk0OtjPddmcsbOlaVPZyqZhdtsN9AUQVabHIwYvMzTFKmGWqjrkGh8KzrP6sw8XXqedg6OsvHq0EEfwUapcGmebFqOzFIOOWrVnaw4NMK5HK2DhDbIkkAzOEZ3aTEEeZcsqa+SX3Kw/+zN+/1wJfWr98EHvyJGWkzbDyIwxUb7d70bUc0RsGhZuYukcAfRnnJKdECyXud8sye2vvHj3++Pu5yAlurk+mIfdHUVTnsUbYCxTV2dsO3a27maGhJpYRsSH+47Uz/2hqvzI82cdF/kI/mMWsz01FMjtuma3eIuvuNox2RXM0k025gsME2w9bl1yUdoh9BWrARt6b0pMkXaaxnfuiaq+Nrt5t3T2+9928uA9r36tVqwZI59lRsuk+7Nx53EUIUQSKiIJBfU8AYsvJn3oAndlIpQ5GN8v95jZlq3d1Dn3qr7noLICZEduhkRGiVKaCC3Rk13CN7iPzoNw13PcreZqhzLSNEO1FOlJGWWCQlNAK1pp7GbxxRWDIqqaGTQptqav6zWO7JksjXRtGkEVK4ksrRKP9WrgpSzn7+LX/oY4Lt/gQRYkPYBgM2TV01NWwCDSwBIwcpqSwOIcSCzkbnnSqtunHB5xriSw4cr07hn3fG7fM8+PS5pV7EYp7WW3+o9cq2GG4s1UrJuQBpsK3MM6yNJp+0atFFf01f0sfjYKq5mLktC0KBusDlWZZcQjiS2XA+52trV2/plDepa0S7z3UHPzul9ZLtHPnnY3N/G4Dg2NVd/B/Tf98Gvxat8O4CPFFwB4Mw6SBRRiQBrc4FamAIAD7nRK+CJ9/7mn/7wy//779tMguFsD7EMMcVI6Aqr7LQvoLNaqtgJRncCGChBFhDs1M2AVpYmdlHAtDWkci5HhZNU8prJKMLRAp2RgOwt9FBWKRJwipeRQkMUCLCASnRI58m+y2w1LEd92n/36PHwxnFd/j5Cn9/xxGEtllSfReAtgABQFgZxAGqrra9dfhb/Q9OFVCT4gkWqgnnA/QaCU0a9Re//+D/1hxTyLArKhAoHlaWQ2ijlYUMYZcYy2nfSx8hKvsm3bLAjE0SYMoYdMnKIpKBmauE0XNzZvM3YmiQ6JCWrhnZOejJEhVWAFhZASVvphdlG1dCRgADELrnTk8+eqvvMPp4+KO5+7n43wL9f7NeAhQGxI83gj/l8/ki+K0zVxMiSVMISitBsOuRDw32XK6vGqAupJE1y41kNzwDLDCPk5aySiVs4Hzqu7o/WHX6LSRnAnUEbWaoqp8QEY1sOg0W00rIUGBRHnvGO7woiWpJUqqQDVxaAO0m+odnGQIzF5pIqoS5gNP3koe5/hUZePrMrAP72DwYfWD9R3/6Ln/BrP/1KAMDJGAO1zEgR4nj+fh97ySUwXzBKpBCSbFm60ksVkjveQQZM6DBMK60ie9AES3xtLvWu3/PYYfdF+aTd/IgPaSBYZDy5ifPFWbYXMs40ZCvriRQTXt3dCsPmiHNy32WnWPpAjYfYeJNqVOOVu5UJTprbYkeHOMKRsMxXxeWZvPH54yyAv99OO8AYwEdPtMUBWM1Hn5XRYSlJUkoCJESEasRKFQApbiSdB4FRdcl7esJZl8sdl+A98/ahOfozdLd2uON78DzjWb9mXrMsDWONzqTdWaRHgPYOTYzDMqvRqO3kZy5r/LgzvtTdrZSHx4mXVyRPhi3X1D8HQkpkoWwiErs3y7iHoJBle1P/GsNrX5J//9QnHw8w/sk8+CX+8S+AjyJAxND79xc+iLr7KO0VTrROA1osFkA4lMVaomoMUBKr8U4k4xhITWmz4Mb16PIYZT/fOT2yuwWtuN9o5ssQMDHzIDSh0RFwu6NEdNp3dbuj00zfdT/u7oyOW+Ib6Zq6bZ1iJJWHXdbvm3vbhoaImzEIlWdepKOxJRckX+psa/lZX/Ga7QHWv/S0+2jaAQCA7BcSYMwqX/DrVLz2zdgQqIfZkiDy5vlm43tCwhd0WA17Ek4tC0ZIm9hw85DHcf/4WqfbvZu9MyG0ryRvQgJ0tGW6prKOHVytlg1CS12sNZDFQ+Pa49i9I7jE1wyVVnF/vW5G3t84SviGq627+7kv9bLv+x89I169fC3/ua5dbsNQbm9t45vPree++Zp690s/+Pd/M/iB/Nw4wEcX8fY1AazqXS+ncT/2dTTJbAkA2VKshkAyUsJD3dorCAw8GzBUZi1Y9oTE7Jtd3ifrz2xh0GnjWdCRBKOkeiPdUqfW4JRDkhYSahBDOL0zv2CYvVRLAU+X45e8PlY+1zQ3mWiZnW27vdTZwwPNGyS0bXFTZVijv/N40Y1fcv7S5kfGZl/1W7//3sfgNzbQilG9qcMbB8MGpjTZXzTwIBqS93gG1LWgoVky5qDOGebAYxUGR2AhNTDq3NBI26NZjFRYTqiS1Q7CTAiQZhkkByQJGVkEjUlLtXTABI6kFhhkq1hgajlYboOI7cvW8xOSjp5v9+UettmoOqboKu4w69R2LnBKokBj6bkBjbRPzrDxxkyePNUr9y3ra93+K/UhsPr2p+nl374nwBLcUDaER9cuXIWFpcRdamwvIVkomKRXY04Q4ESjjCNRgCWtRcFCAGUYR40ku6RAhz2ceOlZaMlS4hKAzYQJDVDgsqnKYvRtGajMJRaphksGMKi4hWUvHTI3bFhOsVefIadT0Ug9S0KTrVentSNjYdeiheVspKx3eQoeYddDvUz4gdVEzoe51q2HaqU/H34+DZhcTMsISAUY3K0PapQLKWu1CSX9hCLGSpihpUKPBLI6LOHbxA9zxOkizexASdqYNJlKhBSbWGyJqCWmYKCNErOwJWQKVLI3GMkBWQyBsAItAslWNlsg2aQMxv6ESZZ2i7LN533WbRkoEzZnU7M4m81w2RHSce0Ettncj6Gb8uiSYfL0rpezm2vw1lLdHEl6Hm4MjN1ejn0Ne2iLkx6Wdx6fC7KWY0Zo3ZRaaKj+UJT7znQeLY1ekaatIh6QkGYgJdbAFm3pvdPPAJKuEziGtUpn7KYMhRtljmijFdjoWs4bDUig2AyOiFaBBMKtsrnFIzrSdNk5P91zMW7ceXqN7WYIojfwyggV689V4xmSoD5rFfq76qM7TU8B1gboqPXXp6vnmzFkfZTGK8vv6wBgEmA5ju1CgMrotDYvs4YJ69ADpKvw7XSw0+mDqxdPItvNevx2MSkai+aj8QT0iEjBggAuERn3EBKoUA3NaTh1N2wSUGMJWBgRaugERkGhTZtchru5g7YAMEJJYrQOj2Z476sXu1NPbB5PUe3M3suS6CM4uC8M9KJS9A6C9Fg2nuXx+Xo5OfU3+ad/vsoLCRi/ND4xWOXE1ck8Hg8Cxksz8QEG3exUDXEJvDfr2tz/kgdnAY4EoLnbdP/xOGh7vVx7oBL3Chlb2KiirmAbKiFCgTMrrGggBnQGnY1I2stGu7gsNyIiLd2WykPpJDTkSiVfRSJ9RAhOaW76yL5Xdx5e4s7Ty1z2jZQnLCs9XSNjUen8uE/aDynbBKRJ4uTf4RzLyQ8M7rtxeuMlgAoUgAK/muBGMB7A7ikBluYiAPjM1GK3dF483J9OWi764ov1nTfig1/zvd/7ZQAN4Ht+1KsfjgcjV6nxReuM6eokMYxUQVNESVCaCKjJ2mskYJVUU/YpNCAl0yxcMhgYobc0ihBud7cfAyZW1bUBO9DttjuVzatHbp5eJxTYJ9R7UMfbsYlpgSJx8b+k3a8h51xxBp/6U+26+wvwDQDAK+ezABQAwPubOHG4phLtngKwRBfBALAAAADQ/l9870/9fUc/qgYowAOAqz/l66c/k/rawdWo6CqRHqEpSC1crWftA1SQJzyk9YIt7Vx4GDaqm45hGm+BLCFjubyTlcLO0lnCYjUE4aLL9rPPffxnv5bpvFVtTccktJWMlqvDkZHwiak81PgZTJ8CeAYAYDNeE6DyZIEDrSCWbOTFPk3xFgGeFxfg/xRhO/sUtU0CeODo8hdu9q9iQ41y59UD+v+90DMMp+rjuXScgqstPKqQFcPwMGlRVJZsTFoFXOjQzgOlxDlRJW1KQpMGrocLHSrljXCB7FS5se7mzWG7z9SOapNHsIpQvcEHo/DI68wPjvxBRO+vR/gR+APwwWp77jBmByAAK+dkJ+nfO+Er+3r++vBv77T5tWnzDhr05V29c9HXzmO8tokKTZYeg9IQUNjSJiwN5ibDqPHCJwmPUXFzJut6WbjQ17+vSMMSpGJU4JaXp7j92UtR60sx1eJV/V8umAG7IEg7xRYe6013ffCfDuc3yCtqcCtMisVp18D/3U9H0v3G//aOPjZa7Ya6k+7tDi6Zcv1y4OONcbbnneM10w7H3vr1/x/aSPdy0OXHI3+eK7yw9fw1n50/n1rWOFVrD/6dnZZsouVrT9qfKiXs+/hrj32vptvuXmvHkq124cZf1NdT6qO891aCETCIVbY0hRGAXZ857oqdyzef+W0Y+Gfr9t5OYMH0n4o0AZAE8Ckw9AVin6q7BUDrMKPdfx83W+jAXQv63hsGsb0fZLYJHSYgdPcmgQJ4aWsEvMNkJHT2KWwT/9uRPKVOiNjtEAh2RsCA/4sOAAA=;" vertex="1" parent="1">
                    <mxGeometry x="616" y="495" width="48" height="48" as="geometry"/>
                </mxCell>
            </root>
        </mxGraphModel>
    </diagram>
</mxfile>